<?xml version="1.0" encoding="UTF-8" standalone="no"?>
<!DOCTYPE svg  PUBLIC '-//W3C//DTD SVG 1.1//EN'  'http://www.w3.org/Graphics/SVG/1.1/DTD/svg11.dtd'>
<svg xmlns="http://www.w3.org/2000/svg">
<defs>
<font id="SFUIDisplay-Thin" horiz-adv-x="1192">
<font-face underline-position="-25" font-weight="200" descent="-410" panose-1="0 0 3 0 0 0 0 0 0 0" units-per-em="2048" unicode-range="U+0020-25CA" bbox="-477 -463 2100 1852" x-height="1077" underline-thickness="50" font-family="SFUIDisplay" ascent="1638" cap-height="1443"/>
<missing-glyph horiz-adv-x="2048"/>
<glyph glyph-name=".notdef" horiz-adv-x="2048"/>
<glyph glyph-name=".null" horiz-adv-x="0"/>
<glyph glyph-name="nonmarkingreturn" horiz-adv-x="0"/>
<glyph glyph-name="space" horiz-adv-x="406" unicode=" "/>
<glyph glyph-name="exclam" horiz-adv-x="510" unicode="!" d="M255 -10q-29 0 -50 20.5t-21 50.5q0 29 21 49.5t50 20.5q30 0 50.5 -20.5t20.5 -49.5q0 -30 -20.5 -50.5t-50.5 -20.5zM214 1443h82l-3 -1017h-76z"/>
<glyph glyph-name="quotedbl" horiz-adv-x="564" unicode='&quot;' d="M457 984h-73v459h73v-459zM181 984h-74v459h74v-459z"/>
<glyph glyph-name="numbersign" horiz-adv-x="1224" unicode="#" d="M457 940l-87 -431h384l85 431h-382zM1180 940h-271l-86 -430h258l-14 -67h-258l-92 -443h-70l92 443h-383l-92 -443h-69l92 443h-247l12 67h250l85 430h-235l13 67h235l92 441h69l-90 -441h382l92 441h69l-91 -441h271z"/>
<glyph glyph-name="dollar" d="M199 1089q0 -116 83 -184.5t281 -115.5v603q-157 -6 -260.5 -92t-103.5 -211zM1020 373q0 128 -89 202t-304 123v-643q170 6 281.5 96.5t111.5 221.5zM627 -167h-64v151q-203 8 -338 121.5t-139 279.5h77q8 -133 122 -227t278 -102v656l-22 6q-226 55 -322.5 139.5 t-96.5 227.5q0 158 123 263t318 114v135h64v-135q185 -9 311 -113.5t131 -252.5h-77q-5 116 -110.5 201.5t-254.5 94.5v-617l24 -6q243 -58 344.5 -146.5t101.5 -245.5q0 -165 -130.5 -273.5t-339.5 -119.5v-151z" unicode="$"/>
<glyph glyph-name="percent" horiz-adv-x="1420" unicode="%" d="M211 0h-85l1075 1443h85zM303 823q84 0 132 77.5t48 208.5t-47.5 208t-132.5 77q-84 0 -131.5 -77.5t-47.5 -207.5q0 -131 47.5 -208.5t131.5 -77.5zM556 1109q0 -158 -67.5 -252t-185.5 -94q-117 0 -185 94t-68 252q0 157 68 251t185 94q118 0 185.5 -93.5t67.5 -251.5z M1117 48q84 0 132 77.5t48 208.5t-47.5 208t-132.5 77q-84 0 -131.5 -77.5t-47.5 -207.5q0 -131 47.5 -208.5t131.5 -77.5zM1370 334q0 -158 -67.5 -252t-185.5 -94q-117 0 -185 94t-68 252q0 157 68 251t185 94q118 0 185.5 -93.5t67.5 -251.5z"/>
<glyph glyph-name="ampersand" horiz-adv-x="1374" unicode="&amp;" d="M520 829q166 81 242.5 162.5t76.5 169.5q0 100 -75.5 168t-185.5 68q-109 0 -188 -70.5t-79 -168.5q0 -68 43.5 -136.5t165.5 -192.5zM395 691q-242 -133 -242 -323q0 -138 106 -229t275 -91q116 0 238 56t198 144l-471 499q-1 -1 -52 -28t-52 -28zM1214 0l-192 199 q-94 -103 -225.5 -161.5t-267.5 -58.5q-201 0 -328 108.5t-127 278.5q0 229 276 378q5 2 54 28l48 26q-123 126 -170 204.5t-47 158.5q0 127 99 214.5t244 87.5t241 -85t96 -215q0 -105 -82 -196.5t-268 -185.5l451 -476q58 90 91 201.5t33 219.5v79h75v-77 q0 -122 -39.5 -249.5t-106.5 -224.5l246 -254h-101z"/>
<glyph glyph-name="quotesingle" horiz-adv-x="287" unicode="&apos;" d="M181 984h-74v459h74v-459z"/>
<glyph glyph-name="parenleft" horiz-adv-x="570" unicode="(" d="M498 -257h-76q-124 159 -196.5 377t-72.5 478q0 494 272 845h74q-119 -156 -193 -375.5t-74 -469.5t72.5 -468t193.5 -387z"/>
<glyph glyph-name="parenright" horiz-adv-x="570" unicode=")" d="M72 -257q121 170 193.5 388t72.5 467q0 250 -74 469.5t-193 375.5h74q271 -350 271 -845q0 -260 -72 -478t-196 -377h-76z"/>
<glyph glyph-name="asterisk" horiz-adv-x="953" unicode="*" d="M797 842l-292 175l5 -341h-66l5 341l-293 -175l-32 57l297 166l-297 165l32 58l293 -176l-5 342h66l-5 -342l292 176l33 -57l-297 -166l297 -166z"/>
<glyph glyph-name="plus" d="M633 539v-504h-74v504h-453v73h453v490h74v-490h453v-73h-453z" unicode="+"/>
<glyph glyph-name="comma" horiz-adv-x="501" unicode="," d="M218 -222h-62l65 402h83z"/>
<glyph glyph-name="hyphen" horiz-adv-x="868" unicode="-" d="M762 539h-656v73h656v-73z"/>
<glyph glyph-name="period" horiz-adv-x="496" unicode="." d="M248 -10q-29 0 -49.5 20.5t-20.5 49.5t20.5 49.5t49.5 20.5t49.5 -20.5t20.5 -49.5t-20.5 -49.5t-49.5 -20.5z"/>
<glyph glyph-name="slash" horiz-adv-x="518" unicode="/" d="M70 -331h-70l446 1774h72z"/>
<glyph glyph-name="zero" horiz-adv-x="1194" unicode="0" d="M598 50q200 0 315.5 181t115.5 491q0 308 -116 489.5t-315 181.5q-200 0 -316 -181.5t-116 -489.5q0 -310 116 -491t316 -181zM598 -21q-237 0 -374.5 200t-137.5 543q0 341 137.5 541.5t374.5 200.5q236 0 373 -200t137 -542q0 -343 -137 -543t-373 -200z"/>
<glyph glyph-name="one" horiz-adv-x="804" unicode="1" d="M484 0v1359h-2q-19 -12 -62 -40.5t-130 -85.5t-202 -128v88q37 23 190 123t206 132h78v-1448h-78z"/>
<glyph glyph-name="two" horiz-adv-x="1142" unicode="2" d="M124 1054q4 178 129 294t314 116q184 0 309.5 -113t125.5 -279q0 -115 -64.5 -223.5t-243.5 -295.5l-451 -477v-4h813v-72h-927v60l513 544q166 175 223.5 269.5t57.5 195.5q0 137 -103 230.5t-255 93.5q-154 0 -257 -96t-107 -243h-77z"/>
<glyph glyph-name="three" horiz-adv-x="1146" unicode="3" d="M384 714v70h161q163 0 266 86t103 222q0 130 -100.5 215.5t-257.5 85.5q-147 0 -248.5 -84.5t-110.5 -213.5h-77q9 161 132 265t307 104q186 0 310 -104t124 -261q0 -134 -82 -226.5t-224 -118.5v-4q168 -11 268.5 -107.5t100.5 -249.5q0 -179 -138.5 -296.5 t-347.5 -117.5q-206 0 -342.5 109.5t-140.5 274.5h77q5 -134 120.5 -223.5t285.5 -89.5q175 0 290.5 96.5t115.5 244.5q0 151 -114 237t-315 86h-163z"/>
<glyph glyph-name="four" horiz-adv-x="1181" unicode="4" d="M157 435v-2h656v935h-2q-357 -476 -654 -933zM813 0v361h-743v73q297 460 707 1013l114 1v-1015h229v-72h-229v-361h-78z"/>
<glyph glyph-name="five" horiz-adv-x="1171" unicode="5" d="M595 -21q-123 0 -227 48t-168.5 133.5t-75.5 192.5h79q17 -131 128.5 -217t264.5 -86q179 0 297.5 116.5t118.5 292.5q0 175 -116.5 292.5t-289.5 117.5q-120 0 -220 -56.5t-159 -156.5h-80l86 787h765v-72h-697l-68 -617h3q59 86 160.5 136t218.5 50q204 0 340 -137 t136 -343q0 -208 -140.5 -344.5t-355.5 -136.5z"/>
<glyph glyph-name="six" horiz-adv-x="1179" unicode="6" d="M615 51q172 0 289.5 120t117.5 296q0 173 -117 289.5t-290 116.5q-111 0 -207 -53t-152 -143t-56 -195q0 -182 120 -306.5t295 -124.5zM616 -21q-124 0 -225.5 53t-168.5 151q-132 176 -132 501q0 360 143.5 570t389.5 210q175 0 298.5 -98t148.5 -258h-80 q-23 125 -126 205t-242 80q-214 0 -334 -196.5t-120 -546.5v-33h4q38 144 164 235.5t287 91.5q205 0 342 -136t137 -339q0 -210 -138.5 -350t-347.5 -140z"/>
<glyph glyph-name="seven" horiz-adv-x="1085" unicode="7" d="M231 0l690 1368v3h-839v72h920v-76l-685 -1367h-86z"/>
<glyph glyph-name="eight" horiz-adv-x="1189" unicode="8" d="M594 799q162 0 265.5 81t103.5 207q0 133 -101.5 219.5t-267.5 86.5q-165 0 -267.5 -87t-102.5 -219q0 -126 104.5 -207t265.5 -81zM594 50q189 0 305.5 98t116.5 249q0 145 -116.5 237t-305.5 92q-188 0 -304.5 -92.5t-116.5 -236.5q0 -151 116 -249t305 -98zM594 -21 q-223 0 -362 116.5t-139 298.5q0 138 93.5 240.5t243.5 130.5v3q-130 29 -207 116.5t-77 206.5q0 163 125.5 268t322.5 105t322.5 -105t125.5 -268q0 -116 -77.5 -204t-204.5 -119v-3q149 -28 242.5 -130.5t93.5 -240.5q0 -183 -139 -299t-363 -116z"/>
<glyph glyph-name="nine" horiz-adv-x="1179" unicode="9" d="M564 570q170 0 292.5 116.5t122.5 274.5q0 181 -119.5 306t-295.5 125q-174 0 -291 -121.5t-117 -300.5q0 -168 116 -284t292 -116zM557 -21q-179 0 -301 98.5t-147 257.5h80q23 -125 123 -205t245 -80q211 0 330 186t125 513v22q0 38 -1 55h-1h-1q-36 -140 -164 -233.5 t-289 -93.5q-207 0 -343 134.5t-136 335.5q0 213 138 354t348 141q125 0 226 -53.5t168 -152.5q132 -178 132 -499q0 -360 -142 -570t-390 -210z"/>
<glyph glyph-name="colon" horiz-adv-x="496" unicode=":" d="M248 760q-29 0 -49.5 20.5t-20.5 49.5t20.5 49.5t49.5 20.5t49.5 -20.5t20.5 -49.5t-20.5 -49.5t-49.5 -20.5zM248 -10q-29 0 -49.5 20.5t-20.5 49.5t20.5 49.5t49.5 20.5t49.5 -20.5t20.5 -49.5t-20.5 -49.5t-49.5 -20.5z"/>
<glyph glyph-name="semicolon" horiz-adv-x="496" unicode=";" d="M203 -222h-63l65 402h84zM248 760q-29 0 -49.5 20.5t-20.5 49.5t20.5 49.5t49.5 20.5t49.5 -20.5t20.5 -49.5t-20.5 -49.5t-49.5 -20.5z"/>
<glyph glyph-name="less" d="M1004 1053l-730 -508v-6l730 -501v-85l-815 554v67l815 564v-85z" unicode="&lt;"/>
<glyph glyph-name="equal" d="M1081 728h-969v70h969v-70zM1081 353h-969v70h969v-70z" unicode="="/>
<glyph glyph-name="greater" d="M189 1053v85l815 -564v-66l-815 -555v85l730 502v6z" unicode="&gt;"/>
<glyph glyph-name="question" horiz-adv-x="931" unicode="?" d="M424 -10q-29 0 -49.5 20.5t-20.5 50.5q0 29 20.5 49.5t49.5 20.5q30 0 50.5 -20.5t20.5 -49.5q0 -30 -20.5 -50.5t-50.5 -20.5zM60 1096q10 158 119.5 261t277.5 103q169 0 280 -101t111 -253q0 -102 -50 -180t-163 -157q-102 -70 -138.5 -126.5t-36.5 -144.5v-90h-77v98 q-1 98 41.5 165t152.5 145q103 73 146.5 139.5t43.5 147.5q0 125 -89 205.5t-223 80.5q-130 0 -218 -80.5t-101 -212.5h-76z"/>
<glyph glyph-name="at" horiz-adv-x="1741" unicode="@" d="M892 1432q173 0 321.5 -55.5t253 -153.5t163.5 -238.5t59 -305.5q0 -240 -83.5 -374t-233.5 -134q-99 0 -163.5 55t-73.5 149h-5q-37 -96 -107.5 -147.5t-164.5 -51.5q-155 0 -253 116.5t-98 301.5q0 184 98 301.5t253 117.5q92 0 166.5 -51.5t102.5 -134.5h5v165h71 v-560q0 -96 44.5 -146.5t131.5 -50.5q114 0 178 116.5t64 328.5q0 201 -92.5 358t-259.5 244t-381 87q-213 0 -384 -98t-267.5 -272.5t-96.5 -392.5q0 -172 56 -317t155 -245t238.5 -155.5t303.5 -55.5q213 0 327 38v-64q-114 -37 -328 -37q-178 0 -330 60t-260 168.5 t-169 265t-61 343.5q0 178 61.5 331.5t169.5 262t260 170t329 61.5zM865 947q-123 0 -203.5 -100.5t-80.5 -254.5q0 -157 78 -253t205 -96q121 0 194 98t73 261q0 160 -71.5 252.5t-194.5 92.5z"/>
<glyph glyph-name="A" horiz-adv-x="1221" unicode="A" d="M608 1340l-296 -788h598l-297 788h-5zM1115 0l-180 481h-649l-179 -481h-86l550 1443h80l549 -1443h-85z"/>
<glyph glyph-name="B" horiz-adv-x="1165" unicode="B" d="M207 72h410q194 0 304 84.5t110 230.5q0 150 -115 235t-320 85h-389v-635zM207 1371v-593h376q170 0 271 83t101 225q0 130 -96 207.5t-257 77.5h-395zM625 0h-497v1443h486q188 0 304.5 -97t116.5 -254q0 -129 -77.5 -221t-206.5 -117v-6q158 -17 259 -114t101 -249 q0 -178 -130 -281.5t-356 -103.5z"/>
<glyph glyph-name="C" horiz-adv-x="1326" unicode="C" d="M702 -21q-290 0 -462.5 203.5t-172.5 547.5q0 337 172 535.5t463 198.5q220 0 382 -138.5t185 -344.5h-79q-23 174 -162.5 291.5t-325.5 117.5q-254 0 -404 -178t-150 -482q0 -310 150.5 -493.5t403.5 -183.5q192 0 328.5 105.5t159.5 277.5h79q-25 -205 -181.5 -331 t-385.5 -126z"/>
<glyph glyph-name="D" horiz-adv-x="1332" unicode="D" d="M208 1370v-1297h365q295 0 453.5 168.5t158.5 479.5q0 313 -159 481t-453 168h-365zM128 1443h449q328 0 508 -189t180 -532q0 -344 -180 -533t-508 -189h-449v1443z"/>
<glyph glyph-name="E" horiz-adv-x="1068" unicode="E" d="M969 73v-73h-841v1443h841v-73h-762v-594h726v-72h-726v-631h762z"/>
<glyph glyph-name="F" horiz-adv-x="1033" unicode="F" d="M207 0h-79v1443h830v-73h-751v-603h691v-72h-691v-695z"/>
<glyph glyph-name="G" horiz-adv-x="1358" unicode="G" d="M1281 571q0 -276 -155.5 -434t-426.5 -158q-186 0 -330 94t-223 264.5t-79 392.5q0 331 173.5 532.5t458.5 201.5q217 0 374.5 -120t198.5 -317h-81q-43 166 -176.5 264.5t-315.5 98.5q-250 0 -400.5 -180t-150.5 -479q0 -304 152 -491t399 -187q232 0 367.5 136.5 t135.5 369.5v83h-503v72h582v-143z"/>
<glyph glyph-name="H" horiz-adv-x="1327" unicode="H" d="M1199 0h-79v705h-913v-705h-79v1443h79v-666h913v666h79v-1443z"/>
<glyph glyph-name="I" horiz-adv-x="335" unicode="I" d="M207 0h-79v1443h79v-1443z"/>
<glyph glyph-name="J" horiz-adv-x="951" unicode="J" d="M41 320h78q7 -119 92 -194.5t214 -75.5q150 0 234.5 89t84.5 250v1054h80v-1058q0 -189 -106.5 -299t-291.5 -110q-165 0 -273 96.5t-112 247.5z"/>
<glyph glyph-name="K" horiz-adv-x="1142" unicode="K" d="M207 0h-79v1443h79v-806h6l750 806h101l-594 -636l660 -807h-101l-615 751l-207 -223v-528z"/>
<glyph glyph-name="L" horiz-adv-x="1024" unicode="L" d="M964 73v-73h-836v1443h79v-1370h757z"/>
<glyph glyph-name="M" horiz-adv-x="1604" unicode="M" d="M1476 1443v-1443h-76v1279h-4l-556 -1276h-76l-556 1276h-4v-1279h-76v1443h88l583 -1340h6l581 1340h90z"/>
<glyph glyph-name="N" horiz-adv-x="1341" unicode="N" d="M206 0h-78v1443h82l919 -1299h6v1299h79v-1443h-75l-927 1307h-6v-1307z"/>
<glyph glyph-name="O" horiz-adv-x="1420" unicode="O" d="M710 1390q-257 0 -409.5 -180.5t-152.5 -487.5q0 -306 152.5 -487.5t409.5 -181.5t409.5 181t152.5 488t-152.5 487.5t-409.5 180.5zM710 1464q295 0 469 -201t174 -541q0 -342 -173.5 -542.5t-469.5 -200.5t-469.5 200.5t-173.5 542.5q0 340 174 541t469 201z"/>
<glyph glyph-name="P" horiz-adv-x="1116" unicode="P" d="M207 1371v-717h377q183 0 289.5 96t106.5 262q0 167 -106.5 263t-289.5 96h-377zM128 1443h469q211 0 337.5 -117.5t126.5 -313.5q0 -195 -127 -312.5t-337 -117.5h-390v-582h-79v1443z"/>
<glyph glyph-name="Q" horiz-adv-x="1420" unicode="Q" d="M710 53q132 0 238 50l-196 269h91l170 -233q125 82 191.5 232t66.5 351q0 306 -152 487t-409 181t-409.5 -181t-152.5 -487t152.5 -487.5t409.5 -181.5zM1244 -177h-91l-159 217q-128 -61 -284 -61q-296 0 -469.5 200.5t-173.5 542.5q0 340 174 541t469 201t469 -201 t174 -541q0 -221 -76.5 -388t-217.5 -258z"/>
<glyph glyph-name="R" horiz-adv-x="1150" unicode="R" d="M207 616v-616h-79v1443h471q214 0 338.5 -110.5t124.5 -301.5q0 -156 -88.5 -262.5t-245.5 -137.5l371 -631h-93l-361 619q-19 -3 -51 -3h-387zM207 1371v-683h387q181 0 284 91t103 250q0 161 -103.5 251.5t-285.5 90.5h-385z"/>
<glyph glyph-name="S" horiz-adv-x="1137" unicode="S" d="M57 385h79q9 -147 134 -240t313 -93q183 0 299.5 92.5t116.5 234.5q0 113 -81 183t-263 116l-171 42q-201 51 -294.5 136.5t-93.5 220.5q0 167 137 277t336 110q203 0 340 -106t144 -266h-79q-8 130 -122.5 214.5t-284.5 84.5q-165 0 -277.5 -88.5t-112.5 -223.5 q0 -107 81 -174t257 -111l161 -41q211 -52 307.5 -138.5t96.5 -229.5q0 -180 -139 -293t-364 -113q-222 0 -366.5 113t-153.5 293z"/>
<glyph glyph-name="T" horiz-adv-x="1138" unicode="T" d="M609 0h-80v1370h-508v73h1096v-73h-508v-1370z"/>
<glyph glyph-name="U" horiz-adv-x="1334" unicode="U" d="M207 1443v-939q0 -207 124 -329t336 -122t336 122t124 329v939h79v-942q0 -237 -145.5 -379.5t-393.5 -142.5t-393.5 142.5t-145.5 379.5v942h79z"/>
<glyph glyph-name="V" horiz-adv-x="1223" unicode="V" d="M651 0h-80l-550 1443h85l503 -1338h5l503 1338h84z"/>
<glyph glyph-name="W" horiz-adv-x="1803" unicode="W" d="M899 1295l-384 -1295h-70l-403 1443h82l356 -1306h5l379 1306h74l380 -1306h5l355 1306h83l-403 -1443h-70l-384 1295h-5z"/>
<glyph glyph-name="X" horiz-adv-x="1215" unicode="X" d="M42 0l516 722v2l-514 719h95l469 -658h2l471 658h92l-518 -721v-2l515 -720h-95l-468 656h-2l-471 -656h-92z"/>
<glyph glyph-name="Y" horiz-adv-x="1172" unicode="Y" d="M626 0h-79v629l-525 814h93l469 -733h5l469 733h92l-524 -814v-629z"/>
<glyph glyph-name="Z" horiz-adv-x="1173" unicode="Z" d="M71 0v62l925 1303v5h-896v73h997v-62l-923 -1303v-5h928v-73h-1031z"/>
<glyph glyph-name="bracketleft" horiz-adv-x="580" unicode="[" d="M162 1443h370v-65h-294v-1549h308v-65h-384v1679z"/>
<glyph glyph-name="backslash" horiz-adv-x="518" unicode="\" d="M448 -331l-448 1774h72l446 -1774h-70z"/>
<glyph glyph-name="bracketright" horiz-adv-x="580" unicode="]" d="M419 1443v-1679h-384v65h308v1549h-294v65h370z"/>
<glyph glyph-name="asciicircum" horiz-adv-x="782" unicode="^" d="M388 1341l-255 -518h-80l301 603h75l300 -603h-79l-256 518h-6z"/>
<glyph glyph-name="underscore" horiz-adv-x="807" unicode="_" d="M870 -205h-933v63h933v-63z"/>
<glyph glyph-name="grave" horiz-adv-x="758" unicode="`" d="M553 1253h-74l-249 303h93z"/>
<glyph glyph-name="a" horiz-adv-x="1030" unicode="a" d="M443 -14q-158 0 -257.5 84.5t-99.5 219.5q0 138 97.5 216t287.5 92l369 27v96q0 141 -81.5 220t-226.5 79q-137 0 -224 -67t-106 -189h-75q14 149 125 238t281 89q177 0 280.5 -98t103.5 -267v-726h-75v232h-2q-40 -110 -150 -178t-247 -68zM453 55q161 0 274 100.5 t113 243.5v161l-359 -27q-155 -11 -236 -73t-81 -170q0 -103 81.5 -169t207.5 -66z"/>
<glyph glyph-name="b" horiz-adv-x="1129" unicode="b" d="M600 1020q-173 0 -283 -135t-110 -347t109.5 -347t282.5 -135t279.5 133.5t106.5 349.5q0 215 -106.5 348t-278.5 133zM611 -14q-144 0 -253 81.5t-151 220.5h-3v-288h-75v1506h78v-713h3q40 136 148.5 217t252.5 81q201 0 327 -153t126 -399t-126 -399.5t-327 -153.5z "/>
<glyph glyph-name="c" horiz-adv-x="1028" unicode="c" d="M969 753h-77q-24 118 -119.5 192.5t-233.5 74.5q-181 0 -288.5 -130.5t-107.5 -351.5t107.5 -351.5t289.5 -130.5q137 0 232 71t119 188h78q-25 -147 -142 -238t-287 -91q-217 0 -346 149t-129 403q0 253 129 403t345 150q170 0 287.5 -96t142.5 -242z"/>
<glyph glyph-name="d" horiz-adv-x="1136" unicode="d" d="M534 1020q-173 0 -281.5 -133t-108.5 -348t108.5 -349t281.5 -134q174 0 285 134.5t111 347.5t-111 347.5t-285 134.5zM525 -14q-203 0 -331.5 153.5t-128.5 398.5q0 246 128.5 399.5t330.5 153.5q146 0 256 -84.5t147 -213.5h2v713h78v-1506h-73v290h-3 q-38 -134 -148.5 -219t-257.5 -85z"/>
<glyph glyph-name="e" horiz-adv-x="1062" unicode="e" d="M905 301h79q-27 -139 -145.5 -227t-293.5 -88q-221 0 -350.5 146.5t-129.5 404.5q0 250 129.5 402t342.5 152q208 0 334 -142.5t126 -377.5v-45h-853v-4q0 -218 109 -342t293 -124q144 0 239.5 68t119.5 177zM536 1021q-168 0 -275 -118t-116 -311h773q-1 191 -106.5 310 t-275.5 119z"/>
<glyph glyph-name="f" horiz-adv-x="536" unicode="f" d="M171 0v1009h-150v68h150v153q0 250 238 250q49 0 79 -9v-68q-33 9 -75 9q-80 0 -122 -44t-42 -143v-148h231v-68h-231v-1009h-78z"/>
<glyph glyph-name="g" horiz-adv-x="1119" unicode="g" d="M545 -361q-170 0 -283 68t-135 180h81q21 -80 113 -129.5t229 -49.5q167 0 269.5 79t102.5 215v285h-2q-37 -130 -146 -214.5t-254 -84.5q-203 0 -329 152.5t-126 398.5q0 247 126.5 399.5t329.5 152.5q145 0 254.5 -85t148.5 -217h3v288h73v-1070q0 -172 -125 -270 t-330 -98zM529 59q174 0 283.5 134t109.5 346q0 213 -109.5 347t-283.5 134q-172 0 -278.5 -133t-106.5 -348q0 -214 106.5 -347t278.5 -133z"/>
<glyph glyph-name="h" horiz-adv-x="1095" unicode="h" d="M129 0v1506h78v-666h3q38 114 139 182.5t236 68.5q178 0 287.5 -109t109.5 -288v-694h-77v685q0 155 -92 245t-244 90q-160 0 -261 -106t-101 -275v-639h-78z"/>
<glyph glyph-name="i" horiz-adv-x="336" unicode="i" d="M168 1341q-26 0 -44 18t-18 43q0 26 18 44t44 18t44.5 -18t18.5 -44q0 -25 -18.5 -43t-44.5 -18zM129 0v1077h78v-1077h-78z"/>
<glyph glyph-name="j" horiz-adv-x="336" unicode="j" d="M168 1341q-26 0 -44 18t-18 43q0 26 18 44t44 18t44.5 -18t18.5 -44q0 -25 -18.5 -43t-44.5 -18zM207 1077v-1157q0 -145 -68 -210t-210 -65h-30v69h27q107 0 155 47.5t48 154.5v1161h78z"/>
<glyph glyph-name="k" horiz-adv-x="938" unicode="k" d="M208 524l609 553h102l-507 -464l511 -613h-95l-474 565l-147 -132v-433h-78v1506h78v-982h1z"/>
<glyph glyph-name="l" horiz-adv-x="336" unicode="l" d="M129 0v1506h78v-1506h-78z"/>
<glyph glyph-name="m" horiz-adv-x="1645" unicode="m" d="M119 0v1077h73v-237h3q31 112 116 181.5t208 69.5q124 0 211 -72.5t113 -183.5h2q30 109 122.5 182.5t219.5 73.5q156 0 250.5 -100t94.5 -267v-724h-78v707q0 146 -75.5 229.5t-208.5 83.5q-136 0 -221 -98t-85 -255v-667h-77v710q0 139 -79 224.5t-203 85.5 q-137 0 -222.5 -104t-85.5 -275v-641h-78z"/>
<glyph glyph-name="n" horiz-adv-x="1080" unicode="n" d="M119 0v1077h73v-237h3q38 114 138.5 182.5t236.5 68.5q179 0 288 -107.5t109 -288.5v-695h-78v686q0 155 -92 244.5t-244 89.5q-158 0 -257 -105.5t-99 -273.5v-641h-78z"/>
<glyph glyph-name="o" horiz-adv-x="1089" unicode="o" d="M544 56q182 0 291.5 130.5t109.5 351.5q0 222 -109 352t-292 130t-292 -130t-109 -352t109.5 -352t291.5 -130zM544 -14q-216 0 -347.5 150t-131.5 402q0 253 131.5 403t347.5 150q217 0 348.5 -150t131.5 -403q0 -252 -132 -402t-348 -150z"/>
<glyph glyph-name="p" horiz-adv-x="1119" unicode="p" d="M589 56q172 0 279 133.5t107 348.5t-107 348.5t-279 133.5q-173 0 -282.5 -134t-109.5 -348q0 -213 109.5 -347.5t282.5 -134.5zM598 1091q203 0 329.5 -153.5t126.5 -399.5t-126 -399t-329 -153q-146 0 -254.5 84t-144.5 214h-3v-629h-78v1422h73v-288h3 q37 131 147.5 216.5t255.5 85.5z"/>
<glyph glyph-name="q" horiz-adv-x="1126" unicode="q" d="M532 56q174 0 285.5 134.5t111.5 347.5t-111.5 347.5t-285.5 134.5q-172 0 -280 -133.5t-108 -348.5t108 -348.5t280 -133.5zM524 1091q147 0 258 -84.5t149 -217.5h3v288h73v-1422h-78v629h-2q-37 -130 -147.5 -214t-256.5 -84q-202 0 -330 153t-128 399t128 399.5 t331 153.5z"/>
<glyph glyph-name="r" horiz-adv-x="614" unicode="r" d="M119 0v1077h73v-213h3q32 110 106.5 168.5t182.5 58.5q53 0 98 -18v-78q-44 22 -110 22q-125 0 -200 -97t-75 -251v-669h-78z"/>
<glyph glyph-name="s" horiz-adv-x="923" unicode="s" d="M94 801q0 127 106.5 208.5t263.5 81.5q162 0 265.5 -88.5t116.5 -235.5h-76q-12 115 -93.5 185.5t-213.5 70.5q-122 0 -207.5 -61.5t-85.5 -157.5q0 -78 54.5 -124t171.5 -74l167 -41q161 -39 230.5 -104t69.5 -176q0 -133 -112 -216t-286 -83q-171 0 -284 91t-122 227 h78q11 -108 102.5 -179.5t227.5 -71.5q137 0 228 63t91 164q0 84 -57 134.5t-189 81.5l-173 42q-139 33 -206 96.5t-67 166.5z"/>
<glyph glyph-name="t" horiz-adv-x="551" unicode="t" d="M179 1354h77v-277h224v-68h-224v-762q0 -96 37 -138t119 -42q76 0 82 2v-69q-12 -2 -92 -2q-118 0 -170.5 57.5t-52.5 189.5v764h-158v68h158v277z"/>
<glyph glyph-name="u" horiz-adv-x="1080" unicode="u" d="M960 1077v-1077h-72v235h-3q-36 -110 -142 -179.5t-239 -69.5q-176 0 -283.5 106.5t-107.5 285.5v699h78v-687q0 -157 89.5 -245.5t239.5 -88.5q157 0 260 104t103 273v644h77z"/>
<glyph glyph-name="v" horiz-adv-x="918" unicode="v" d="M911 1077l-406 -1077h-92l-406 1077h83l368 -998h2l369 998h82z"/>
<glyph glyph-name="w" horiz-adv-x="1430" unicode="w" d="M1422 1077l-314 -1077h-91l-301 976h-2l-301 -976h-91l-314 1077h82l277 -990h3l301 990h88l301 -990h3l277 990h82z"/>
<glyph glyph-name="x" horiz-adv-x="897" unicode="x" d="M449 485h-2l-347 -485h-90l395 546l-394 531h92l345 -471h3l344 471h92l-394 -529l392 -548h-90z"/>
<glyph glyph-name="y" horiz-adv-x="919" unicode="y" d="M186 -354q-24 0 -54 9v69q24 -8 56 -8q72 0 117 45t87 154l27 70l-412 1092h83l369 -1001h2l369 1001h82l-417 -1111q-73 -193 -134 -256.5t-175 -63.5z"/>
<glyph glyph-name="z" horiz-adv-x="928" unicode="z" d="M66 0v65l704 942v2h-704v68h795v-66l-705 -941v-2h706v-68h-796z"/>
<glyph glyph-name="braceleft" horiz-adv-x="694" unicode="{" d="M184 615q87 -8 127.5 -63.5t40.5 -165.5v-395q0 -237 250 -237h65v-67h-50q-180 0 -260 75.5t-80 247.5v336q0 124 -38.5 173.5t-135.5 49.5v113q96 0 135 50t39 175v284q0 168 79 241t261 73h50v-66h-65q-130 0 -190 -57.5t-60 -180.5v-335q0 -110 -40.5 -165.5 t-127.5 -63.5v-22z"/>
<glyph glyph-name="bar" horiz-adv-x="355" unicode="|" d="M212 -330h-69v1773h69v-1773z"/>
<glyph glyph-name="braceright" horiz-adv-x="694" unicode="}" d="M510 615v22q-87 8 -127.5 63.5t-40.5 165.5v335q0 123 -60.5 180.5t-190.5 57.5h-65v66h51q182 0 261 -73t79 -241v-284q0 -125 39 -175t136 -50v-113q-97 0 -136 -49.5t-39 -173.5v-336q0 -172 -80 -247.5t-260 -75.5h-51v67h65q251 0 251 237v395q0 110 40.5 165.5 t127.5 63.5z"/>
<glyph glyph-name="asciitilde" d="M563 668q-68 64 -108 87.5t-81 23.5q-73 0 -117.5 -59.5t-47.5 -160.5h-73q-1 133 64.5 213t174.5 80q56 0 106 -26.5t127 -97.5q65 -60 110.5 -85t88.5 -25q73 0 122.5 64.5t53.5 164.5h74q0 -130 -71 -216.5t-179 -86.5q-64 0 -114.5 25.5t-129.5 98.5z" unicode="~"/>
<glyph glyph-name="nonbreakingspace" horiz-adv-x="406" unicode=" "/>
<glyph glyph-name="exclamdown" horiz-adv-x="510" unicode="¡" d="M255 974q-29 0 -50 21t-21 50q0 30 21 50.5t50 20.5q30 0 50.5 -20.5t20.5 -50.5q0 -29 -20.5 -50t-50.5 -21zM214 -338l3 1017h76l3 -1017h-82z"/>
<glyph glyph-name="cent" d="M1083 478q-21 -142 -141.5 -233t-285.5 -100v-213h-77v213q-209 14 -340 162.5t-131 391.5q0 241 131.5 390t339.5 162v199h77v-198q165 -10 286.5 -104t142.5 -238h-79q-24 124 -133.5 198.5t-255.5 74.5q-187 0 -309 -132t-122 -352q0 -221 121.5 -353.5t309.5 -132.5 q148 0 257 70.5t131 194.5h78z" unicode="¢"/>
<glyph glyph-name="sterling" d="M218 70h913v-70h-1065v71q76 19 137.5 49t111.5 73t78 103t28 132q0 100 -57 254h-264v67h239q-26 68 -40 110.5t-27 106.5t-13 121q0 177 122 282t339 105q102 0 188.5 -17.5t131.5 -41.5v-74q-45 25 -130.5 43t-185.5 18q-184 0 -284.5 -86t-100.5 -230 q0 -56 13.5 -120t27.5 -105t41 -112h469v-67h-444q53 -150 53 -253q0 -73 -25.5 -135t-69 -104t-89 -70t-97.5 -46v-4z" unicode="£"/>
<glyph glyph-name="currency" d="M1055 1064l-166 -166q87 -106 87 -243q0 -136 -88 -242l167 -167l-50 -50l-167 167q-106 -87 -241 -87q-136 0 -241 87l-168 -167l-51 50l168 168q-87 106 -87 241q0 136 87 242l-168 167l51 50l166 -167q106 88 243 88t241 -87l167 166zM282 655q0 -131 92 -223t223 -92 q129 0 221.5 93t92.5 222q0 131 -92 223.5t-222 92.5t-222.5 -92.5t-92.5 -223.5z" unicode="¤"/>
<glyph glyph-name="yen" d="M976 363h-339v-363h-80v363h-341v66h341v208h-341v65h308l-492 741h93l470 -711h4l469 711h92l-490 -741h306v-65h-339v-208h339v-66z" unicode="¥"/>
<glyph glyph-name="brokenbar" horiz-adv-x="356" unicode="¦" d="M213 -330h-70v695h70v-695zM213 752h-70v691h70v-691z"/>
<glyph glyph-name="section" horiz-adv-x="953" unicode="§" d="M482 -240q-161 0 -268 74.5t-120 195.5h78q14 -91 100 -146t213 -55t209.5 60t82.5 152q0 81 -61 132.5t-194 82.5l-113 27q-170 40 -249.5 109t-79.5 178q0 103 70.5 175.5t194.5 95.5v6q-124 37 -183.5 101t-59.5 160q0 125 104 205t265 80q160 0 265.5 -73t119.5 -194 h-77q-14 89 -98.5 143.5t-210.5 54.5q-127 0 -208.5 -59.5t-81.5 -152.5q0 -81 60.5 -132.5t192.5 -82.5l113 -27q170 -40 249 -109t79 -176q0 -106 -74 -180t-200 -97v-6q129 -32 191 -95t62 -162q0 -124 -104.5 -204.5t-266.5 -80.5zM425 354l78 -17q128 2 210 67.5 t82 167.5q0 87 -64 141.5t-201 85.5l-78 17q-128 -1 -210.5 -67.5t-82.5 -167.5q0 -86 64.5 -141t201.5 -86z"/>
<glyph glyph-name="dieresis" horiz-adv-x="758" unicode="¨" d="M531 1256q-27 0 -47 19.5t-20 47.5q0 27 20 46.5t47 19.5q28 0 48 -19.5t20 -46.5q0 -28 -20 -47.5t-48 -19.5zM227 1256q-28 0 -48 19.5t-20 47.5q0 27 20 46.5t48 19.5q27 0 47 -19.5t20 -46.5q0 -28 -20 -47.5t-47 -19.5z"/>
<glyph glyph-name="copyright" horiz-adv-x="1732" unicode="©" d="M1218 795h-68q-24 89 -99 145.5t-187 56.5q-143 0 -233.5 -98t-90.5 -267q0 -170 90 -270t234 -100q116 0 190 52.5t94 139.5h69q-22 -115 -115 -184.5t-237 -69.5q-174 0 -284 117t-110 315q0 196 109.5 311.5t283.5 115.5q141 0 237 -76.5t117 -187.5zM866 -78 q146 0 276 54t223.5 146.5t148 223.5t54.5 280q0 199 -92.5 360.5t-253.5 252.5t-356 91q-145 0 -275 -53.5t-224 -146t-148.5 -224t-54.5 -280.5q0 -148 55 -279.5t148.5 -224t223.5 -146.5t275 -54zM866 -145q-213 0 -389.5 100.5t-278.5 277.5t-102 393q0 217 102 394 t278.5 277t389.5 100q214 0 390.5 -100t278 -277t101.5 -394q0 -216 -101.5 -393t-278 -277.5t-390.5 -100.5z"/>
<glyph glyph-name="ordfeminine" horiz-adv-x="879" unicode="ª" d="M391 581q-125 0 -202.5 67.5t-77.5 177.5q0 108 77 170.5t225 73.5l285 22v83q0 101 -64.5 160t-176.5 59q-103 0 -165.5 -45t-77.5 -118h-70q15 100 97.5 162.5t217.5 62.5q143 0 226 -75.5t83 -205.5v-585h-67v174h-6q-34 -82 -117.5 -132.5t-186.5 -50.5zM182 828 q0 -83 62 -134.5t162 -51.5q121 0 207 75.5t86 182.5v136l-274 -22q-119 -10 -181 -57t-62 -129z"/>
<glyph glyph-name="guillemotleft" horiz-adv-x="1185" unicode="«" d="M252 571v-8l366 -408h-95l-370 410v5l370 409h95zM666 571v-8l366 -408h-95l-370 410v5l370 409h95z"/>
<glyph glyph-name="logicalnot" d="M1076 707v-537h-70v468h-890v69h960z" unicode="¬"/>
<glyph glyph-name="registered" horiz-adv-x="1207" unicode="®" d="M474 1219v-217h131q61 0 94 30t33 80q0 48 -33.5 77.5t-93.5 29.5h-131zM474 756h-53v511h197q74 0 121 -41.5t47 -113.5q0 -61 -35.5 -101t-86.5 -47l148 -208h-66l-141 200h-131v-200zM603 569q180 0 303 123.5t123 302.5t-123 302t-303 123q-179 0 -302 -123 t-123 -302t123 -302.5t302 -123.5zM603 514q-201 0 -341.5 140t-140.5 341q0 132 64 242.5t175 174t243 63.5q202 0 342.5 -139.5t140.5 -340.5t-140.5 -341t-342.5 -140z"/>
<glyph glyph-name="macron" horiz-adv-x="856" unicode="¯" d="M726 1366v-58h-596v58h596z"/>
<glyph glyph-name="degree" horiz-adv-x="591" unicode="°" d="M295 1059q67 0 115 47.5t48 113.5q0 67 -47.5 114.5t-115.5 47.5q-66 0 -114 -47.5t-48 -114.5q0 -66 48 -113.5t114 -47.5zM295 998q-92 0 -157 65t-65 157t65 157.5t157 65.5t157.5 -65.5t65.5 -157.5q0 -91 -65.5 -156.5t-157.5 -65.5z"/>
<glyph glyph-name="plusminus" d="M631 682v-350h-70v350h-455v66h455v332h70v-332h455v-66h-455zM1086 113h-980v69h980v-69z" unicode="±"/>
<glyph glyph-name="two.sups" horiz-adv-x="565" unicode="²" d="M63 1591q1 87 62.5 143t156.5 56q93 0 153.5 -52.5t60.5 -133.5q0 -51 -29.5 -100t-106.5 -128l-193 -202v-2h348v-61h-449v52l245 251q65 69 88.5 107.5t23.5 78.5q0 56 -40.5 92.5t-103.5 36.5q-62 0 -103.5 -39t-42.5 -99v-2h-70v2z"/>
<glyph glyph-name="three.sups" horiz-adv-x="572" unicode="³" d="M198 1427v57h78q65 0 106 35t41 90q0 51 -41 86t-103 35q-61 0 -102 -34.5t-45 -88.5h-69q4 81 64.5 132t154.5 51q92 0 152 -49t60 -124q0 -61 -37.5 -103.5t-102.5 -53.5v-3q78 -5 123 -49.5t45 -113.5q0 -85 -67.5 -140t-172.5 -55q-102 0 -166.5 53t-66.5 136h71 q2 -55 47 -91t115 -36q72 0 118.5 38.5t46.5 96.5q0 61 -45 96t-125 35h-79z"/>
<glyph glyph-name="acute" horiz-adv-x="758" unicode="´" d="M279 1253h-74l230 303h93z"/>
<glyph glyph-name="paragraph" horiz-adv-x="1165" unicode="¶" d="M917 -162v1605h79v-1605h-79zM742 -162h-79v737h-20q-208 0 -341 122.5t-133 308.5q0 196 130.5 316.5t344.5 120.5h98v-1605z"/>
<glyph glyph-name="periodcentered" horiz-adv-x="496" unicode="·" d="M248 528q-29 0 -49.5 20.5t-20.5 49.5t20.5 49.5t49.5 20.5t49.5 -20.5t20.5 -49.5t-20.5 -49.5t-49.5 -20.5z"/>
<glyph glyph-name="cedilla" horiz-adv-x="758" unicode="¸" d="M266 -193v43l67 157l60 -7l-58 -141q96 0 151.5 -41t55.5 -111q0 -75 -60.5 -122.5t-156.5 -47.5h-9q-66 0 -119 16v56q43 -17 122 -17q68 0 113.5 32t45.5 81q0 50 -41 76t-119 26h-52z"/>
<glyph glyph-name="one.sups" horiz-adv-x="434" unicode="¹" d="M237 1111v598h-3l-178 -118v70l178 118h74v-668h-71z"/>
<glyph glyph-name="ordmasculine" horiz-adv-x="970" unicode="º" d="M484 580q-173 0 -275 117.5t-102 318.5q0 202 102.5 320.5t274.5 118.5q173 0 276 -118.5t103 -320.5q0 -200 -103 -318t-276 -118zM180 1016q0 -172 82.5 -271.5t221.5 -99.5q140 0 223 99.5t83 271.5q0 173 -83 273.5t-223 100.5q-139 0 -221.5 -100.5t-82.5 -273.5z "/>
<glyph glyph-name="guillemotright" horiz-adv-x="1185" unicode="»" d="M932 571l-365 408h94l371 -409v-5l-371 -410h-94l365 408v8zM518 571l-365 408h95l370 -409v-5l-370 -410h-95l365 408v8z"/>
<glyph glyph-name="onequarter" horiz-adv-x="1394" unicode="¼" d="M174 1h-85l1075 1443h85zM240 775v598h-3l-178 -118v70l178 118h74v-668h-71zM916 211v-1h271v399h-2q-158 -220 -269 -398zM1185 0v150h-339v65q115 184 306 453h105v-457h99v-61h-99v-150h-72z"/>
<glyph glyph-name="onehalf" horiz-adv-x="1409" unicode="½" d="M174 1h-85l1075 1443h85zM240 775v598h-3l-178 -118v70l178 118h74v-668h-71zM912 480q1 87 62.5 143t156.5 56q93 0 153.5 -52.5t60.5 -133.5q0 -51 -29.5 -100t-106.5 -128l-193 -202v-2h348v-61h-449v52l245 251q65 69 88.5 107.5t23.5 78.5q0 56 -40.5 92.5 t-103.5 36.5q-62 0 -103.5 -39t-42.5 -99v-2h-70v2z"/>
<glyph glyph-name="threequarters" horiz-adv-x="1460" unicode="¾" d="M270 1h-85l1075 1443h85zM983 211v-1h271v399h-2q-158 -220 -269 -398zM1252 0v150h-339v65q115 184 306 453h105v-457h99v-61h-99v-150h-72zM191 1091v57h78q65 0 106 35t41 90q0 51 -41 86t-103 35q-61 0 -102 -34.5t-45 -88.5h-69q4 81 64.5 132t154.5 51 q92 0 152 -49t60 -124q0 -61 -37.5 -103.5t-102.5 -53.5v-3q78 -5 123 -49.5t45 -113.5q0 -85 -67.5 -140t-172.5 -55q-102 0 -166.5 53t-66.5 136h71q2 -55 47 -91t115 -36q72 0 118.5 38.5t46.5 96.5q0 61 -45 96t-125 35h-79z"/>
<glyph glyph-name="questiondown" horiz-adv-x="931" unicode="¿" d="M501 974q-29 0 -49.5 21t-20.5 50q0 30 20.5 50.5t49.5 20.5q30 0 50.5 -20.5t20.5 -50.5q0 -29 -20.5 -50t-50.5 -21zM871 2q-9 -158 -119 -261.5t-278 -103.5q-169 0 -280 101.5t-111 253.5q0 101 50.5 179.5t162.5 156.5q102 71 138 127t36 144v90h78v-98 q0 -98 -42 -164.5t-151 -145.5q-103 -74 -147 -139.5t-44 -146.5q0 -125 89 -206t223 -81q130 0 218.5 80.5t100.5 213.5h76z"/>
<glyph glyph-name="Agrave" horiz-adv-x="1221" unicode="À" d="M580 1553l-297 290h95l280 -290h-78zM608 1340l-296 -788h598l-297 788h-5zM1115 0l-180 481h-649l-179 -481h-86l550 1443h80l549 -1443h-85z"/>
<glyph glyph-name="Aacute" horiz-adv-x="1221" unicode="Á" d="M643 1553h-78l279 290h96zM608 1340l-296 -788h598l-297 788h-5zM1115 0l-180 481h-649l-179 -481h-86l550 1443h80l549 -1443h-85z"/>
<glyph glyph-name="Acircumflex" horiz-adv-x="1221" unicode="Â" d="M577 1843h68l271 -290h-83l-221 238h-2l-221 -238h-83zM608 1340l-296 -788h598l-297 788h-5zM1115 0l-180 481h-649l-179 -481h-86l550 1443h80l549 -1443h-85z"/>
<glyph glyph-name="Atilde" horiz-adv-x="1221" unicode="Ã" d="M746 1549q-36 0 -67.5 17t-55 41t-45.5 48t-47.5 41t-52.5 17q-91 0 -91 -153h-60q0 98 38.5 155t111.5 57q36 0 68.5 -17t56 -41t45.5 -48t47.5 -41t51.5 -17q89 0 89 154h61q0 -97 -39 -155t-111 -58zM608 1340l-296 -788h598l-297 788h-5zM1115 0l-180 481h-649 l-179 -481h-86l550 1443h80l549 -1443h-85z"/>
<glyph glyph-name="Adieresis" horiz-adv-x="1221" unicode="Ä" d="M763 1563q-27 0 -47 19.5t-20 47.5q0 27 20 46.5t47 19.5q28 0 48 -19.5t20 -46.5q0 -28 -20 -47.5t-48 -19.5zM459 1563q-28 0 -48 19.5t-20 47.5q0 27 20 46.5t48 19.5q27 0 47 -19.5t20 -46.5q0 -28 -20 -47.5t-47 -19.5zM608 1340l-296 -788h598l-297 788h-5zM1115 0 l-180 481h-649l-179 -481h-86l550 1443h80l549 -1443h-85z"/>
<glyph glyph-name="Aring" horiz-adv-x="1221" unicode="Å" d="M611 1554q52 0 88 36.5t36 88.5t-36 88.5t-88 36.5t-88 -36.5t-36 -88.5t36 -88.5t88 -36.5zM611 1506q-71 0 -121.5 51t-50.5 122t50.5 122t121.5 51t121.5 -51t50.5 -122t-50.5 -122t-121.5 -51zM608 1340l-296 -788h598l-297 788h-5zM1115 0l-180 481h-649l-179 -481 h-86l550 1443h80l549 -1443h-85z"/>
<glyph glyph-name="AE" horiz-adv-x="1900" unicode="Æ" d="M999 0v422h-659l-210 -422h-84l722 1443h1021v-73h-712v-597h676v-72h-676v-628h712v-73h-790zM815 1373l-441 -881h625v881h-184z"/>
<glyph glyph-name="Ccedilla" horiz-adv-x="1326" unicode="Ç" d="M1269 981h-79q-23 174 -162.5 291.5t-325.5 117.5q-254 0 -404 -178t-150 -482q0 -310 150.5 -493.5t403.5 -183.5q192 0 328.5 105.5t159.5 277.5h79q-24 -199 -172.5 -324t-368.5 -133l-50 -120q96 0 151.5 -41t55.5 -111q0 -75 -60.5 -122.5t-156.5 -47.5h-9 q-66 0 -119 16v56q43 -17 122 -17q68 0 113.5 32t45.5 81q0 50 -41 76t-119 26h-52v43l55 130q-274 14 -435.5 216t-161.5 534q0 337 172 535.5t463 198.5q220 0 382 -138.5t185 -344.5z"/>
<glyph glyph-name="Egrave" horiz-adv-x="1068" unicode="È" d="M969 73v-73h-841v1443h841v-73h-762v-594h726v-72h-726v-631h762zM517 1553l-297 290h95l280 -290h-78z"/>
<glyph glyph-name="Eacute" horiz-adv-x="1068" unicode="É" d="M969 73v-73h-841v1443h841v-73h-762v-594h726v-72h-726v-631h762zM580 1553h-78l279 290h96z"/>
<glyph glyph-name="Ecircumflex" horiz-adv-x="1068" unicode="Ê" d="M969 73v-73h-841v1443h841v-73h-762v-594h726v-72h-726v-631h762zM514 1843h68l271 -290h-83l-221 238h-2l-221 -238h-83z"/>
<glyph glyph-name="Edieresis" horiz-adv-x="1068" unicode="Ë" d="M969 73v-73h-841v1443h841v-73h-762v-594h726v-72h-726v-631h762zM700 1563q-27 0 -47 19.5t-20 47.5q0 27 20 46.5t47 19.5q28 0 48 -19.5t20 -46.5q0 -28 -20 -47.5t-48 -19.5zM396 1563q-28 0 -48 19.5t-20 47.5q0 27 20 46.5t48 19.5q27 0 47 -19.5t20 -46.5 q0 -28 -20 -47.5t-47 -19.5z"/>
<glyph glyph-name="Igrave" horiz-adv-x="335" unicode="Ì" d="M136 1553l-297 290h95l280 -290h-78zM207 0h-79v1443h79v-1443z"/>
<glyph glyph-name="Iacute" horiz-adv-x="335" unicode="Í" d="M199 1553h-78l279 290h96zM207 0h-79v1443h79v-1443z"/>
<glyph glyph-name="Icircumflex" horiz-adv-x="335" unicode="Î" d="M133 1843h68l271 -290h-83l-221 238h-2l-221 -238h-83zM207 0h-79v1443h79v-1443z"/>
<glyph glyph-name="Idieresis" horiz-adv-x="335" unicode="Ï" d="M319 1563q-27 0 -47 19.5t-20 47.5q0 27 20 46.5t47 19.5q28 0 48 -19.5t20 -46.5q0 -28 -20 -47.5t-48 -19.5zM15 1563q-28 0 -48 19.5t-20 47.5q0 27 20 46.5t48 19.5q27 0 47 -19.5t20 -46.5q0 -28 -20 -47.5t-47 -19.5zM207 0h-79v1443h79v-1443z"/>
<glyph glyph-name="Eth" horiz-adv-x="1399" unicode="Ð" d="M128 1443h449q328 0 508 -189t180 -532q0 -344 -180 -533t-508 -189h-449v705h-115v73h115v665zM208 73h365q295 0 453.5 168.5t158.5 479.5q0 313 -159 481t-453 168h-365v-592h358v-73h-358v-632z"/>
<glyph glyph-name="Ntilde" horiz-adv-x="1341" unicode="Ñ" d="M206 0h-78v1443h82l919 -1299h6v1299h79v-1443h-75l-927 1307h-6v-1307zM806 1549q-36 0 -67.5 17t-55 41t-45.5 48t-47.5 41t-52.5 17q-91 0 -91 -153h-60q0 98 38.5 155t111.5 57q36 0 68.5 -17t56 -41t45.5 -48t47.5 -41t51.5 -17q89 0 89 154h61q0 -97 -39 -155 t-111 -58z"/>
<glyph glyph-name="Ograve" horiz-adv-x="1420" unicode="Ò" d="M710 1390q-257 0 -409.5 -180.5t-152.5 -487.5q0 -306 152.5 -487.5t409.5 -181.5t409.5 181t152.5 488t-152.5 487.5t-409.5 180.5zM710 1464q295 0 469 -201t174 -541q0 -342 -173.5 -542.5t-469.5 -200.5t-469.5 200.5t-173.5 542.5q0 340 174 541t469 201zM679 1553 l-297 290h95l280 -290h-78z"/>
<glyph glyph-name="Oacute" horiz-adv-x="1420" unicode="Ó" d="M710 1390q-257 0 -409.5 -180.5t-152.5 -487.5q0 -306 152.5 -487.5t409.5 -181.5t409.5 181t152.5 488t-152.5 487.5t-409.5 180.5zM710 1464q295 0 469 -201t174 -541q0 -342 -173.5 -542.5t-469.5 -200.5t-469.5 200.5t-173.5 542.5q0 340 174 541t469 201zM742 1553 h-78l279 290h96z"/>
<glyph glyph-name="Ocircumflex" horiz-adv-x="1420" unicode="Ô" d="M710 1390q-257 0 -409.5 -180.5t-152.5 -487.5q0 -306 152.5 -487.5t409.5 -181.5t409.5 181t152.5 488t-152.5 487.5t-409.5 180.5zM710 1464q295 0 469 -201t174 -541q0 -342 -173.5 -542.5t-469.5 -200.5t-469.5 200.5t-173.5 542.5q0 340 174 541t469 201zM676 1843 h68l271 -290h-83l-221 238h-2l-221 -238h-83z"/>
<glyph glyph-name="Otilde" horiz-adv-x="1420" unicode="Õ" d="M845 1549q-36 0 -67.5 17t-55 41t-45.5 48t-47.5 41t-52.5 17q-91 0 -91 -153h-60q0 98 38.5 155t111.5 57q36 0 68.5 -17t56 -41t45.5 -48t47.5 -41t51.5 -17q89 0 89 154h61q0 -97 -39 -155t-111 -58zM710 1390q-257 0 -409.5 -180.5t-152.5 -487.5 q0 -306 152.5 -487.5t409.5 -181.5t409.5 181t152.5 488t-152.5 487.5t-409.5 180.5zM710 1464q295 0 469 -201t174 -541q0 -342 -173.5 -542.5t-469.5 -200.5t-469.5 200.5t-173.5 542.5q0 340 174 541t469 201z"/>
<glyph glyph-name="Odieresis" horiz-adv-x="1420" unicode="Ö" d="M710 1390q-257 0 -409.5 -180.5t-152.5 -487.5q0 -306 152.5 -487.5t409.5 -181.5t409.5 181t152.5 488t-152.5 487.5t-409.5 180.5zM710 1464q295 0 469 -201t174 -541q0 -342 -173.5 -542.5t-469.5 -200.5t-469.5 200.5t-173.5 542.5q0 340 174 541t469 201zM862 1563 q-27 0 -47 19.5t-20 47.5q0 27 20 46.5t47 19.5q28 0 48 -19.5t20 -46.5q0 -28 -20 -47.5t-48 -19.5zM558 1563q-28 0 -48 19.5t-20 47.5q0 27 20 46.5t48 19.5q27 0 47 -19.5t20 -46.5q0 -28 -20 -47.5t-47 -19.5z"/>
<glyph glyph-name="multiply" d="M597 530l-322 -322l-50 49l322 322l-322 323l50 50l321 -323l322 321l50 -48l-321 -323l321 -321l-50 -50z" unicode="×"/>
<glyph glyph-name="Oslash" horiz-adv-x="1420" unicode="Ø" d="M1338 1449l-151 -195q166 -200 166 -532q0 -342 -173.5 -542.5t-469.5 -200.5q-243 0 -407 139l-157 -202l-51 37l162 208q-190 201 -190 561q0 340 174 541t469 201q265 0 434 -164l144 184zM308 226l787 1010q-149 154 -385 154q-257 0 -409.5 -180.5t-152.5 -487.5 q0 -314 160 -496zM1136 1189l-784 -1008q143 -128 358 -128q257 0 409.5 181t152.5 488q0 287 -136 467z"/>
<glyph glyph-name="Ugrave" horiz-adv-x="1332" unicode="Ù" d="M207 1443v-939q0 -207 124 -329t336 -122t336 122t124 329v939h79v-942q0 -237 -145.5 -379.5t-393.5 -142.5t-393.5 142.5t-145.5 379.5v942h79zM635 1553l-297 290h95l280 -290h-78z"/>
<glyph glyph-name="Uacute" horiz-adv-x="1332" unicode="Ú" d="M207 1443v-939q0 -207 124 -329t336 -122t336 122t124 329v939h79v-942q0 -237 -145.5 -379.5t-393.5 -142.5t-393.5 142.5t-145.5 379.5v942h79zM698 1553h-78l279 290h96z"/>
<glyph glyph-name="Ucircumflex" horiz-adv-x="1332" unicode="Û" d="M207 1443v-939q0 -207 124 -329t336 -122t336 122t124 329v939h79v-942q0 -237 -145.5 -379.5t-393.5 -142.5t-393.5 142.5t-145.5 379.5v942h79zM632 1843h68l271 -290h-83l-221 238h-2l-221 -238h-83z"/>
<glyph glyph-name="Udieresis" horiz-adv-x="1332" unicode="Ü" d="M207 1443v-939q0 -207 124 -329t336 -122t336 122t124 329v939h79v-942q0 -237 -145.5 -379.5t-393.5 -142.5t-393.5 142.5t-145.5 379.5v942h79zM818 1563q-27 0 -47 19.5t-20 47.5q0 27 20 46.5t47 19.5q28 0 48 -19.5t20 -46.5q0 -28 -20 -47.5t-48 -19.5zM514 1563 q-28 0 -48 19.5t-20 47.5q0 27 20 46.5t48 19.5q27 0 47 -19.5t20 -46.5q0 -28 -20 -47.5t-47 -19.5z"/>
<glyph glyph-name="Yacute" horiz-adv-x="1172" unicode="Ý" d="M618 1553h-78l279 290h96zM626 0h-79v629l-525 814h93l469 -733h5l469 733h92l-524 -814v-629z"/>
<glyph glyph-name="Thorn" horiz-adv-x="1209" unicode="Þ" d="M243 1085v-661h390q175 0 275 88t100 242q0 153 -100.5 242t-274.5 89h-390zM163 1443h80v-285h404q197 0 318.5 -108.5t121.5 -295.5t-120.5 -294.5t-320.5 -107.5h-403v-352h-80v1443z"/>
<glyph glyph-name="germandbls" horiz-adv-x="1090" unicode="ß" d="M210 0h-76v1072q0 178 100.5 277.5t279.5 99.5q171 0 277 -94.5t106 -246.5q0 -126 -74 -221t-185 -122v-3q167 -16 272.5 -117t105.5 -253q0 -178 -126.5 -294t-320.5 -116q-90 0 -170 16v72q70 -18 167 -18q159 0 266 96.5t107 243.5q0 145 -116 235.5t-303 90.5h-99 v75h96q127 0 215 91t88 221q0 122 -84.5 198t-220.5 76q-143 0 -224 -83t-81 -229v-1067z"/>
<glyph glyph-name="agrave" horiz-adv-x="1030" unicode="à" d="M583 1253h-74l-249 303h93zM443 -14q-158 0 -257.5 84.5t-99.5 219.5q0 138 97.5 216t287.5 92l369 27v96q0 141 -81.5 220t-226.5 79q-137 0 -224 -67t-106 -189h-75q14 149 125 238t281 89q177 0 280.5 -98t103.5 -267v-726h-75v232h-2q-40 -110 -150 -178t-247 -68z M453 55q161 0 274 100.5t113 243.5v161l-359 -27q-155 -11 -236 -73t-81 -170q0 -103 81.5 -169t207.5 -66z"/>
<glyph glyph-name="aacute" horiz-adv-x="1030" unicode="á" d="M552 1253h-74l230 303h93zM443 -14q-158 0 -257.5 84.5t-99.5 219.5q0 138 97.5 216t287.5 92l369 27v96q0 141 -81.5 220t-226.5 79q-137 0 -224 -67t-106 -189h-75q14 149 125 238t281 89q177 0 280.5 -98t103.5 -267v-726h-75v232h-2q-40 -110 -150 -178t-247 -68z M453 55q161 0 274 100.5t113 243.5v161l-359 -27q-155 -11 -236 -73t-81 -170q0 -103 81.5 -169t207.5 -66z"/>
<glyph glyph-name="acircumflex" horiz-adv-x="1030" unicode="â" d="M563 1556l268 -303h-80l-217 249h-3l-217 -249h-81l268 303h62zM443 -14q-158 0 -257.5 84.5t-99.5 219.5q0 138 97.5 216t287.5 92l369 27v96q0 141 -81.5 220t-226.5 79q-137 0 -224 -67t-106 -189h-75q14 149 125 238t281 89q177 0 280.5 -98t103.5 -267v-726h-75v232 h-2q-40 -110 -150 -178t-247 -68zM453 55q161 0 274 100.5t113 243.5v161l-359 -27q-155 -11 -236 -73t-81 -170q0 -103 81.5 -169t207.5 -66z"/>
<glyph glyph-name="atilde" horiz-adv-x="1030" unicode="ã" d="M667 1255q-36 0 -67.5 17t-55 41t-45.5 48t-47.5 41t-52.5 17q-91 0 -91 -153h-60q0 98 38.5 155t111.5 57q36 0 68.5 -17t56 -41t45.5 -48t47.5 -41t51.5 -17q89 0 89 154h61q0 -97 -39 -155t-111 -58zM443 -14q-158 0 -257.5 84.5t-99.5 219.5q0 138 97.5 216t287.5 92 l369 27v96q0 141 -81.5 220t-226.5 79q-137 0 -224 -67t-106 -189h-75q14 149 125 238t281 89q177 0 280.5 -98t103.5 -267v-726h-75v232h-2q-40 -110 -150 -178t-247 -68zM453 55q161 0 274 100.5t113 243.5v161l-359 -27q-155 -11 -236 -73t-81 -170q0 -103 81.5 -169 t207.5 -66z"/>
<glyph glyph-name="adieresis" horiz-adv-x="1030" unicode="ä" d="M684 1256q-27 0 -47 19.5t-20 47.5q0 27 20 46.5t47 19.5q28 0 48 -19.5t20 -46.5q0 -28 -20 -47.5t-48 -19.5zM380 1256q-28 0 -48 19.5t-20 47.5q0 27 20 46.5t48 19.5q27 0 47 -19.5t20 -46.5q0 -28 -20 -47.5t-47 -19.5zM443 -14q-158 0 -257.5 84.5t-99.5 219.5 q0 138 97.5 216t287.5 92l369 27v96q0 141 -81.5 220t-226.5 79q-137 0 -224 -67t-106 -189h-75q14 149 125 238t281 89q177 0 280.5 -98t103.5 -267v-726h-75v232h-2q-40 -110 -150 -178t-247 -68zM453 55q161 0 274 100.5t113 243.5v161l-359 -27q-155 -11 -236 -73 t-81 -170q0 -103 81.5 -169t207.5 -66z"/>
<glyph glyph-name="aring" horiz-adv-x="1030" unicode="å" d="M532 1282q52 0 88 36.5t36 88.5t-36 88.5t-88 36.5t-88 -36.5t-36 -88.5t36 -88.5t88 -36.5zM532 1234q-71 0 -121.5 51t-50.5 122t50.5 122t121.5 51t121.5 -51t50.5 -122t-50.5 -122t-121.5 -51zM443 -14q-158 0 -257.5 84.5t-99.5 219.5q0 138 97.5 216t287.5 92 l369 27v96q0 141 -81.5 220t-226.5 79q-137 0 -224 -67t-106 -189h-75q14 149 125 238t281 89q177 0 280.5 -98t103.5 -267v-726h-75v232h-2q-40 -110 -150 -178t-247 -68zM453 55q161 0 274 100.5t113 243.5v161l-359 -27q-155 -11 -236 -73t-81 -170q0 -103 81.5 -169 t207.5 -66z"/>
<glyph glyph-name="ae" horiz-adv-x="1830" unicode="æ" d="M454 55q161 0 273.5 101.5t112.5 246.5v134l-362 -23q-154 -10 -234 -68t-80 -159q0 -102 80.5 -167t209.5 -65zM1312 1021q-170 0 -277.5 -116.5t-116.5 -306.5h768q-1 191 -103 307t-271 116zM1318 -14q-155 0 -266 78t-160 225h-6q-44 -141 -160.5 -222t-272.5 -81 q-165 0 -266 83t-101 217q0 132 97 207t284 86l373 24v127q0 136 -84 213t-229 77q-138 0 -226 -68t-104 -188h-76q15 148 125.5 237.5t279.5 89.5q153 0 254.5 -76.5t115.5 -210.5h6q47 130 155 208.5t259 78.5q206 0 327.5 -139.5t121.5 -373.5v-46h-848v-9 q0 -212 109.5 -339.5t292.5 -127.5q140 0 233 67.5t118 177.5h79q-28 -140 -144 -227.5t-287 -87.5z"/>
<glyph glyph-name="ccedilla" horiz-adv-x="1028" unicode="ç" d="M969 753h-77q-24 118 -119.5 192.5t-233.5 74.5q-181 0 -288.5 -130.5t-107.5 -351.5t107.5 -351.5t289.5 -130.5q137 0 232 71t119 188h78q-24 -141 -132.5 -231t-267.5 -97l-53 -128q96 0 151.5 -41t55.5 -111q0 -75 -60.5 -122.5t-156.5 -47.5h-9q-66 0 -119 16v56 q43 -17 122 -17q68 0 113.5 32t45.5 81q0 50 -41 76t-119 26h-52v43l58 137q-202 12 -321 160t-119 391q0 253 129 403t345 150q170 0 287.5 -96t142.5 -242z"/>
<glyph glyph-name="egrave" horiz-adv-x="1062" unicode="è" d="M905 301h79q-27 -139 -145.5 -227t-293.5 -88q-221 0 -350.5 146.5t-129.5 404.5q0 250 129.5 402t342.5 152q208 0 334 -142.5t126 -377.5v-45h-853v-4q0 -218 109 -342t293 -124q144 0 239.5 68t119.5 177zM536 1021q-168 0 -275 -118t-116 -311h773q-1 191 -106.5 310 t-275.5 119zM588 1253h-74l-249 303h93z"/>
<glyph glyph-name="eacute" horiz-adv-x="1062" unicode="é" d="M905 301h79q-27 -139 -145.5 -227t-293.5 -88q-221 0 -350.5 146.5t-129.5 404.5q0 250 129.5 402t342.5 152q208 0 334 -142.5t126 -377.5v-45h-853v-4q0 -218 109 -342t293 -124q144 0 239.5 68t119.5 177zM536 1021q-168 0 -275 -118t-116 -311h773q-1 191 -106.5 310 t-275.5 119zM557 1253h-74l230 303h93z"/>
<glyph glyph-name="ecircumflex" horiz-adv-x="1062" unicode="ê" d="M905 301h79q-27 -139 -145.5 -227t-293.5 -88q-221 0 -350.5 146.5t-129.5 404.5q0 250 129.5 402t342.5 152q208 0 334 -142.5t126 -377.5v-45h-853v-4q0 -218 109 -342t293 -124q144 0 239.5 68t119.5 177zM536 1021q-168 0 -275 -118t-116 -311h773q-1 191 -106.5 310 t-275.5 119zM568 1556l268 -303h-80l-217 249h-3l-217 -249h-81l268 303h62z"/>
<glyph glyph-name="edieresis" horiz-adv-x="1062" unicode="ë" d="M689 1256q-27 0 -47 19.5t-20 47.5q0 27 20 46.5t47 19.5q28 0 48 -19.5t20 -46.5q0 -28 -20 -47.5t-48 -19.5zM385 1256q-28 0 -48 19.5t-20 47.5q0 27 20 46.5t48 19.5q27 0 47 -19.5t20 -46.5q0 -28 -20 -47.5t-47 -19.5zM905 301h79q-27 -139 -145.5 -227t-293.5 -88 q-221 0 -350.5 146.5t-129.5 404.5q0 250 129.5 402t342.5 152q208 0 334 -142.5t126 -377.5v-45h-853v-4q0 -218 109 -342t293 -124q144 0 239.5 68t119.5 177zM536 1021q-168 0 -275 -118t-116 -311h773q-1 191 -106.5 310t-275.5 119z"/>
<glyph glyph-name="igrave" horiz-adv-x="336" unicode="ì" d="M129 0v1077h78v-1077h-78zM219 1253h-74l-249 303h93z"/>
<glyph glyph-name="iacute" horiz-adv-x="336" unicode="í" d="M129 0v1077h78v-1077h-78zM188 1253h-74l230 303h93z"/>
<glyph glyph-name="icircumflex" horiz-adv-x="336" unicode="î" d="M129 0v1077h78v-1077h-78zM199 1556l268 -303h-80l-217 249h-3l-217 -249h-81l268 303h62z"/>
<glyph glyph-name="idieresis" horiz-adv-x="336" unicode="ï" d="M320 1256q-27 0 -47 19.5t-20 47.5q0 27 20 46.5t47 19.5q28 0 48 -19.5t20 -46.5q0 -28 -20 -47.5t-48 -19.5zM16 1256q-28 0 -48 19.5t-20 47.5q0 27 20 46.5t48 19.5q27 0 47 -19.5t20 -46.5q0 -28 -20 -47.5t-47 -19.5zM129 0v1077h78v-1077h-78z"/>
<glyph glyph-name="eth" horiz-adv-x="1120" unicode="ð" d="M542 983q-172 0 -282.5 -126.5t-110.5 -323.5q0 -213 110.5 -346t287.5 -133q173 0 281 130.5t108 339.5t-107 334t-287 125zM547 -17q-213 0 -345 151.5t-132 397.5q0 229 130.5 375t335.5 146q123 0 222.5 -60t151.5 -166h8q-59 275 -224 448l-290 -117l-20 55l267 109 q-73 72 -233 167h108q120 -69 193 -142l267 107l20 -55l-243 -98q248 -283 248 -742q0 -264 -125.5 -420t-338.5 -156z"/>
<glyph glyph-name="ntilde" horiz-adv-x="1080" unicode="ñ" d="M119 0v1077h73v-237h3q38 114 138.5 182.5t236.5 68.5q179 0 288 -107.5t109 -288.5v-695h-78v686q0 155 -92 244.5t-244 89.5q-158 0 -257 -105.5t-99 -273.5v-641h-78zM681 1255q-36 0 -67.5 17t-55 41t-45.5 48t-47.5 41t-52.5 17q-91 0 -91 -153h-60q0 98 38.5 155 t111.5 57q36 0 68.5 -17t56 -41t45.5 -48t47.5 -41t51.5 -17q89 0 89 154h61q0 -97 -39 -155t-111 -58z"/>
<glyph glyph-name="ograve" horiz-adv-x="1089" unicode="ò" d="M544 56q182 0 291.5 130.5t109.5 351.5q0 222 -109 352t-292 130t-292 -130t-109 -352t109.5 -352t291.5 -130zM544 -14q-216 0 -347.5 150t-131.5 402q0 253 131.5 403t347.5 150q217 0 348.5 -150t131.5 -403q0 -252 -132 -402t-348 -150zM595 1252h-74l-249 303h93z "/>
<glyph glyph-name="oacute" horiz-adv-x="1089" unicode="ó" d="M544 56q182 0 291.5 130.5t109.5 351.5q0 222 -109 352t-292 130t-292 -130t-109 -352t109.5 -352t291.5 -130zM544 -14q-216 0 -347.5 150t-131.5 402q0 253 131.5 403t347.5 150q217 0 348.5 -150t131.5 -403q0 -252 -132 -402t-348 -150zM564 1252h-74l230 303h93z "/>
<glyph glyph-name="ocircumflex" horiz-adv-x="1089" unicode="ô" d="M544 56q182 0 291.5 130.5t109.5 351.5q0 222 -109 352t-292 130t-292 -130t-109 -352t109.5 -352t291.5 -130zM544 -14q-216 0 -347.5 150t-131.5 402q0 253 131.5 403t347.5 150q217 0 348.5 -150t131.5 -403q0 -252 -132 -402t-348 -150zM575 1555l268 -303h-80 l-217 249h-3l-217 -249h-81l268 303h62z"/>
<glyph glyph-name="otilde" horiz-adv-x="1089" unicode="õ" d="M544 56q182 0 291.5 130.5t109.5 351.5q0 222 -109 352t-292 130t-292 -130t-109 -352t109.5 -352t291.5 -130zM544 -14q-216 0 -347.5 150t-131.5 402q0 253 131.5 403t347.5 150q217 0 348.5 -150t131.5 -403q0 -252 -132 -402t-348 -150zM679 1254q-36 0 -67.5 17 t-55 41t-45.5 48t-47.5 41t-52.5 17q-91 0 -91 -153h-60q0 98 38.5 155t111.5 57q36 0 68.5 -17t56 -41t45.5 -48t47.5 -41t51.5 -17q89 0 89 154h61q0 -97 -39 -155t-111 -58z"/>
<glyph glyph-name="odieresis" horiz-adv-x="1089" unicode="ö" d="M544 56q182 0 291.5 130.5t109.5 351.5q0 222 -109 352t-292 130t-292 -130t-109 -352t109.5 -352t291.5 -130zM544 -14q-216 0 -347.5 150t-131.5 402q0 253 131.5 403t347.5 150q217 0 348.5 -150t131.5 -403q0 -252 -132 -402t-348 -150zM696 1255q-27 0 -47 19.5 t-20 47.5q0 27 20 46.5t47 19.5q28 0 48 -19.5t20 -46.5q0 -28 -20 -47.5t-48 -19.5zM392 1255q-28 0 -48 19.5t-20 47.5q0 27 20 46.5t48 19.5q27 0 47 -19.5t20 -46.5q0 -28 -20 -47.5t-47 -19.5z"/>
<glyph glyph-name="divide" d="M1086 541h-980v69h980v-69zM597 138q-35 0 -59 24t-24 58q0 35 24 59t59 24t58.5 -24t23.5 -59q0 -34 -23.5 -58t-58.5 -24zM597 832q-35 0 -59 24t-24 59t24 58.5t59 23.5t58.5 -23.5t23.5 -58.5t-23.5 -59t-58.5 -24z" unicode="÷"/>
<glyph glyph-name="oslash" horiz-adv-x="1089" unicode="ø" d="M997 1099l-109 -153q136 -152 136 -408q0 -252 -132 -402t-348 -150q-161 0 -277 85l-110 -154l-53 35l114 160q-153 151 -153 426q0 253 131.5 403t347.5 150q176 0 300 -102l102 143zM263 174l537 753q-104 93 -256 93q-183 0 -292 -130t-109 -352q0 -231 120 -364z M843 882l-534 -751q98 -75 235 -75q182 0 291.5 130.5t109.5 351.5q0 214 -102 344z"/>
<glyph glyph-name="ugrave" horiz-adv-x="1080" unicode="ù" d="M960 1077v-1077h-72v235h-3q-36 -110 -142 -179.5t-239 -69.5q-176 0 -283.5 106.5t-107.5 285.5v699h78v-687q0 -157 89.5 -245.5t239.5 -88.5q157 0 260 104t103 273v644h77zM588 1252h-74l-249 303h93z"/>
<glyph glyph-name="uacute" horiz-adv-x="1080" unicode="ú" d="M960 1077v-1077h-72v235h-3q-36 -110 -142 -179.5t-239 -69.5q-176 0 -283.5 106.5t-107.5 285.5v699h78v-687q0 -157 89.5 -245.5t239.5 -88.5q157 0 260 104t103 273v644h77zM557 1252h-74l230 303h93z"/>
<glyph glyph-name="ucircumflex" horiz-adv-x="1080" unicode="û" d="M960 1077v-1077h-72v235h-3q-36 -110 -142 -179.5t-239 -69.5q-176 0 -283.5 106.5t-107.5 285.5v699h78v-687q0 -157 89.5 -245.5t239.5 -88.5q157 0 260 104t103 273v644h77zM568 1555l268 -303h-80l-217 249h-3l-217 -249h-81l268 303h62z"/>
<glyph glyph-name="udieresis" horiz-adv-x="1080" unicode="ü" d="M689 1255q-27 0 -47 19.5t-20 47.5q0 27 20 46.5t47 19.5q28 0 48 -19.5t20 -46.5q0 -28 -20 -47.5t-48 -19.5zM385 1255q-28 0 -48 19.5t-20 47.5q0 27 20 46.5t48 19.5q27 0 47 -19.5t20 -46.5q0 -28 -20 -47.5t-47 -19.5zM960 1077v-1077h-72v235h-3 q-36 -110 -142 -179.5t-239 -69.5q-176 0 -283.5 106.5t-107.5 285.5v699h78v-687q0 -157 89.5 -245.5t239.5 -88.5q157 0 260 104t103 273v644h77z"/>
<glyph glyph-name="yacute" horiz-adv-x="919" unicode="ý" d="M480 1252h-74l230 303h93zM186 -354q-24 0 -54 9v69q24 -8 56 -8q72 0 117 45t87 154l27 70l-412 1092h83l369 -1001h2l369 1001h82l-417 -1111q-73 -193 -134 -256.5t-175 -63.5z"/>
<glyph glyph-name="thorn" horiz-adv-x="1129" unicode="þ" d="M598 54q174 0 280.5 133t106.5 351t-106.5 351.5t-279.5 133.5q-175 0 -284.5 -135t-109.5 -350q0 -214 109.5 -349t283.5 -135zM610 1093q203 0 328.5 -153.5t125.5 -401.5q0 -247 -126 -401t-328 -154q-138 0 -244.5 75t-152.5 203h-7v-646h-77v1868h74v-680h7 q47 133 154 211.5t246 78.5z"/>
<glyph glyph-name="OE" horiz-adv-x="2178" unicode="Œ" d="M1285 0v372q-67 -188 -215.5 -290.5t-353.5 -102.5q-300 0 -474.5 200t-174.5 543t174.5 542.5t474.5 199.5q205 0 353 -101.5t216 -289.5v370h815v-73h-735v-594h698v-72h-698v-631h735v-73h-815zM716 1390q-260 0 -414 -181t-154 -487t154 -487.5t414 -181.5t414 181 t154 488q0 305 -154 486.5t-414 181.5z"/>
<glyph glyph-name="oe" horiz-adv-x="1943" unicode="œ" d="M143 535q0 -221 109.5 -351t291.5 -130t291.5 130t109.5 351q0 222 -109.5 352.5t-291.5 130.5t-291.5 -130.5t-109.5 -352.5zM1798 591q-1 191 -106.5 310.5t-274.5 119.5q-167 0 -275 -118.5t-117 -311.5h773zM1426 -14q-167 0 -287.5 96.5t-152.5 249.5h-5 q-34 -159 -151.5 -254t-285.5 -95q-218 0 -348.5 149.5t-130.5 402.5q0 254 130.5 404t348.5 150q167 0 284.5 -95t152.5 -252h5q32 154 150.5 251.5t281.5 97.5q208 0 334 -142.5t126 -377.5v-46h-853v-4q0 -210 109.5 -337.5t293.5 -127.5q143 0 237.5 68t120.5 177h78 q-27 -140 -145 -227.5t-293 -87.5z"/>
<glyph glyph-name="Scaron" horiz-adv-x="1137" unicode="Š" d="M535 1553l-271 290h83l221 -239h2l221 239h83l-271 -290h-68zM57 385h79q9 -147 134 -240t313 -93q183 0 299.5 92.5t116.5 234.5q0 113 -81 183t-263 116l-171 42q-201 51 -294.5 136.5t-93.5 220.5q0 167 137 277t336 110q203 0 340 -106t144 -266h-79 q-8 130 -122.5 214.5t-284.5 84.5q-165 0 -277.5 -88.5t-112.5 -223.5q0 -107 81 -174t257 -111l161 -41q211 -52 307.5 -138.5t96.5 -229.5q0 -180 -139 -293t-364 -113q-222 0 -366.5 113t-153.5 293z"/>
<glyph glyph-name="scaron" horiz-adv-x="923" unicode="š" d="M94 801q0 127 106.5 208.5t263.5 81.5q162 0 265.5 -88.5t116.5 -235.5h-76q-12 115 -93.5 185.5t-213.5 70.5q-122 0 -207.5 -61.5t-85.5 -157.5q0 -78 54.5 -124t171.5 -74l167 -41q161 -39 230.5 -104t69.5 -176q0 -133 -112 -216t-286 -83q-171 0 -284 91t-122 227 h78q11 -108 102.5 -179.5t227.5 -71.5q137 0 228 63t91 164q0 84 -57 134.5t-189 81.5l-173 42q-139 33 -206 96.5t-67 166.5zM495 1253h-62l-268 303h81l217 -249h3l217 249h80z"/>
<glyph glyph-name="Ydieresis" horiz-adv-x="1172" unicode="Ÿ" d="M738 1563q-27 0 -47 19.5t-20 47.5q0 27 20 46.5t47 19.5q28 0 48 -19.5t20 -46.5q0 -28 -20 -47.5t-48 -19.5zM434 1563q-28 0 -48 19.5t-20 47.5q0 27 20 46.5t48 19.5q27 0 47 -19.5t20 -46.5q0 -28 -20 -47.5t-47 -19.5zM626 0h-79v629l-525 814h93l469 -733h5 l469 733h92l-524 -814v-629z"/>
<glyph glyph-name="circumflex" horiz-adv-x="758" unicode="ˆ" d="M410 1556l268 -303h-80l-217 249h-3l-217 -249h-81l268 303h62z"/>
<glyph glyph-name="tilde" horiz-adv-x="758" unicode="˜" d="M514 1255q-36 0 -67.5 17t-55 41t-45.5 48t-47.5 41t-52.5 17q-91 0 -91 -153h-60q0 98 38.5 155t111.5 57q36 0 68.5 -17t56 -41t45.5 -48t47.5 -41t51.5 -17q89 0 89 154h61q0 -97 -39 -155t-111 -58z"/>
<glyph glyph-name="Alphagreek" horiz-adv-x="1221" unicode="Α" d="M608 1340l-296 -788h598l-297 788h-5zM1115 0l-180 481h-649l-179 -481h-86l550 1443h80l549 -1443h-85z"/>
<glyph glyph-name="Betagreek" horiz-adv-x="1165" unicode="Β" d="M207 72h410q194 0 304 84.5t110 230.5q0 150 -115 235t-320 85h-389v-635zM207 1371v-593h376q170 0 271 83t101 225q0 130 -96 207.5t-257 77.5h-395zM625 0h-497v1443h486q188 0 304.5 -97t116.5 -254q0 -129 -77.5 -221t-206.5 -117v-6q158 -17 259 -114t101 -249 q0 -178 -130 -281.5t-356 -103.5z"/>
<glyph glyph-name="Gammagreek" horiz-adv-x="993" unicode="Γ" d="M207 0h-79v1443h810v-73h-731v-1370z"/>
<glyph glyph-name="Deltagreek" horiz-adv-x="1264" unicode="Δ" d="M136 78v-5h991v5l-493 1265h-5zM1220 0h-1176v57l548 1386h80l548 -1386v-57z"/>
<glyph glyph-name="Epsilongreek" horiz-adv-x="1047" unicode="Ε" d="M969 73v-73h-841v1443h841v-73h-762v-594h726v-72h-726v-631h762z"/>
<glyph glyph-name="Zetagreek" horiz-adv-x="1173" unicode="Ζ" d="M71 0v62l925 1303v5h-896v73h997v-62l-923 -1303v-5h928v-73h-1031z"/>
<glyph glyph-name="Etagreek" horiz-adv-x="1327" unicode="Η" d="M1199 0h-79v705h-913v-705h-79v1443h79v-666h913v666h79v-1443z"/>
<glyph glyph-name="Thetagreek" horiz-adv-x="1423" unicode="Θ" d="M712 1390q-259 0 -411.5 -180.5t-152.5 -487.5t152.5 -488t411.5 -181q258 0 410.5 181t152.5 488t-152 487.5t-411 180.5zM712 1464q296 0 470 -200.5t174 -541.5q0 -342 -173.5 -542.5t-470.5 -200.5t-471 200.5t-174 542.5q0 341 174.5 541.5t470.5 200.5zM1053 691 h-683v73h683v-73z"/>
<glyph glyph-name="Iotagreek" horiz-adv-x="335" unicode="Ι" d="M207 0h-79v1443h79v-1443z"/>
<glyph glyph-name="Kappagreek" horiz-adv-x="1142" unicode="Κ" d="M207 0h-79v1443h79v-806h6l750 806h101l-594 -636l660 -807h-101l-615 751l-207 -223v-528z"/>
<glyph glyph-name="Lambdagreek" horiz-adv-x="1181" unicode="Λ" d="M1075 0l-482 1334h-5l-481 -1334h-86l530 1443h80l529 -1443h-85z"/>
<glyph glyph-name="Mugreek" horiz-adv-x="1604" unicode="Μ" d="M1476 1443v-1443h-76v1279h-4l-556 -1276h-76l-556 1276h-4v-1279h-76v1443h88l583 -1340h6l581 1340h90z"/>
<glyph glyph-name="Nugreek" horiz-adv-x="1341" unicode="Ν" d="M206 0h-78v1443h82l919 -1299h6v1299h79v-1443h-75l-927 1307h-6v-1307z"/>
<glyph glyph-name="Xigreek" horiz-adv-x="1177" unicode="Ξ" d="M78 75h1020v-75h-1020v75zM1034 704h-891v75h891v-75zM78 1443h1020v-75h-1020v75z"/>
<glyph glyph-name="Omicrongreek" horiz-adv-x="1420" unicode="Ο" d="M710 1390q-257 0 -409.5 -180.5t-152.5 -487.5q0 -306 152.5 -487.5t409.5 -181.5t409.5 181t152.5 488t-152.5 487.5t-409.5 180.5zM710 1464q295 0 469 -201t174 -541q0 -342 -173.5 -542.5t-469.5 -200.5t-469.5 200.5t-173.5 542.5q0 340 174 541t469 201z"/>
<glyph glyph-name="Pigreek" horiz-adv-x="1307" unicode="Π" d="M1179 0h-79v1370h-893v-1370h-79v1443h1051v-1443z"/>
<glyph glyph-name="Rhogreek" horiz-adv-x="1116" unicode="Ρ" d="M207 1371v-717h377q183 0 289.5 96t106.5 262q0 167 -106.5 263t-289.5 96h-377zM128 1443h469q211 0 337.5 -117.5t126.5 -313.5q0 -195 -127 -312.5t-337 -117.5h-390v-582h-79v1443z"/>
<glyph glyph-name="Sigmagreek" horiz-adv-x="1150" unicode="Σ" d="M171 78v-5h908v-73h-1008v62l469 675l-450 640v66h967v-73h-866v-5l438 -622v-5z"/>
<glyph glyph-name="Taugreek" horiz-adv-x="1138" unicode="Τ" d="M609 0h-80v1370h-508v73h1096v-73h-508v-1370z"/>
<glyph glyph-name="Upsilongreek" horiz-adv-x="1172" unicode="Υ" d="M626 0h-79v629l-525 814h93l469 -733h5l469 733h92l-524 -814v-629z"/>
<glyph glyph-name="Phigreek" horiz-adv-x="1533" unicode="Φ" d="M805 -59h-79v127q-318 4 -498.5 177.5t-180.5 476.5t180.5 476.5t498.5 177.5v116h79v-116q319 -4 500 -177.5t181 -476.5t-181 -476.5t-500 -177.5v-127zM128 722q0 -270 159 -424.5t439 -156.5v1163q-281 -4 -439.5 -157.5t-158.5 -424.5zM1404 722q0 271 -158.5 424.5 t-440.5 157.5v-1163q281 2 440 156.5t159 424.5z"/>
<glyph glyph-name="Chigreek" horiz-adv-x="1215" unicode="Χ" d="M42 0l516 722v2l-514 719h95l469 -658h2l471 658h92l-518 -721v-2l515 -720h-95l-468 656h-2l-471 -656h-92z"/>
<glyph glyph-name="Psigreek" horiz-adv-x="1430" unicode="Ψ" d="M755 0h-80v353q-276 0 -424.5 144.5t-148.5 414.5v531h79v-530q0 -236 126.5 -360.5t367.5 -125.5v1016h80v-1016q241 1 367.5 125.5t126.5 360.5v530h79v-531q0 -270 -148.5 -414.5t-424.5 -144.5v-353z"/>
<glyph glyph-name="alphagreek" horiz-adv-x="1214" unicode="α" d="M521 -14q-200 0 -328 155t-128 398q0 242 127.5 397t326.5 155q131 0 244 -84.5t148 -217.5h3v288h73v-865q0 -79 26.5 -115t84.5 -36q35 0 64 10l7 -69q-35 -10 -82 -10q-169 0 -178 187v105h-2q-33 -124 -143 -211t-243 -87zM526 56q166 0 274.5 136.5t108.5 345.5 t-110.5 345.5t-274.5 136.5q-166 0 -273 -136t-107 -346q0 -212 106.5 -347t275.5 -135z"/>
<glyph glyph-name="betagreek" horiz-adv-x="1124" unicode="β" d="M119 1022q0 240 114 369t325 129q186 0 293 -99t107 -267q0 -122 -68 -212.5t-191 -120.5v-2q175 -28 267.5 -133t92.5 -271q0 -193 -120.5 -311t-313.5 -118q-159 0 -272 78.5t-153 219.5h-3v-669h-78v1407zM428 779v71h136q146 0 232 82t86 218t-88 218t-232 82 q-180 0 -273 -110.5t-93 -325.5v-470q0 -224 113.5 -356t307.5 -132q164 0 263.5 99t99.5 256q0 177 -114 272.5t-313 95.5h-125z"/>
<glyph glyph-name="gammagreek" horiz-adv-x="999" unicode="γ" d="M904 914q0 -119 -22 -222.5t-74.5 -215t-124 -222t-186.5 -265.5v-342h-77v337l-384 1093h83l347 -1005h2q198 270 279.5 454t81.5 388q0 83 -13 163h76q12 -72 12 -163z"/>
<glyph glyph-name="deltagreek" horiz-adv-x="1064" unicode="δ" d="M533 55q174 0 283 118t109 309q0 116 -34 206.5t-92 144.5t-127.5 81t-145.5 27q-169 0 -280 -119t-111 -329q0 -195 110 -316.5t288 -121.5zM535 -14q-214 0 -345.5 139.5t-131.5 366.5q0 225 119 360t319 146v4q-138 55 -198 118.5t-60 151.5q0 116 91.5 182t249.5 66 q187 0 314 -67l-3 -71q-146 69 -314 69q-125 0 -193 -46.5t-68 -131.5q0 -77 66 -131t251 -129q192 -80 281 -205.5t89 -323.5q0 -221 -131 -359.5t-336 -138.5z"/>
<glyph glyph-name="epsilongreek" horiz-adv-x="1031" unicode="ε" d="M492 -14q-194 0 -304 79.5t-110 218.5q0 103 60 173t166 92v3q-95 14 -149.5 77.5t-54.5 161.5q0 136 112.5 218t297.5 82t303.5 -90.5t138.5 -244.5h-78q-13 119 -112.5 191.5t-252.5 72.5q-151 0 -242.5 -63t-91.5 -167q0 -202 296 -202h148v-70h-149 q-147 0 -230.5 -61t-83.5 -168q0 -111 88.5 -172t247.5 -61q151 0 260 70t138 187h79q-29 -145 -161.5 -236t-315.5 -91z"/>
<glyph glyph-name="zetagreek" horiz-adv-x="849" unicode="ζ" d="M778 -385l-66 15q54 82 54 178q0 69 -53.5 121.5t-191.5 101.5q-256 91 -356 205.5t-100 311.5q0 237 179 481.5t456 401.5v3h-553v72h681v-72q-313 -173 -498.5 -409t-185.5 -475q0 -119 36 -195t124 -135.5t257 -123.5q159 -59 220 -123t61 -158q0 -110 -64 -200z"/>
<glyph glyph-name="etagreek" horiz-adv-x="1213" unicode="η" d="M1100 -385h-77v1063q0 154 -88.5 248t-233.5 94q-163 0 -261.5 -105t-98.5 -279v-636h-78v864q0 79 -27.5 115t-85.5 36q-42 0 -69 -9v68q36 10 84 10q81 0 121.5 -45t46.5 -141q1 -2 2 -29t1 -29h2q43 118 143 184.5t235 66.5q170 0 277 -108.5t107 -281.5v-1086z"/>
<glyph glyph-name="thetagreek" horiz-adv-x="1114" unicode="θ" d="M163 794h789q-4 323 -104 489.5t-290 166.5q-192 0 -292 -166.5t-103 -489.5zM558 56q193 0 292.5 169t101.5 499h-789q2 -329 102 -498.5t293 -169.5zM558 -14q-236 0 -355 194t-119 575q0 376 120.5 570.5t353.5 194.5q232 0 352 -195t120 -571q0 -381 -119 -574.5 t-353 -193.5z"/>
<glyph glyph-name="iotagreek" horiz-adv-x="493" unicode="ι" d="M370 -9q-135 0 -193.5 60.5t-58.5 200.5v825h77v-815q0 -107 43 -155t139 -48q51 0 88 10l2 -68q-33 -10 -97 -10z"/>
<glyph glyph-name="kappagreek" horiz-adv-x="1069" unicode="κ" d="M119 0v1077h77v-689h2l493 568q62 72 109.5 100t108.5 28q51 0 78 -10v-68q-27 9 -70 9q-45 0 -82.5 -23.5t-92.5 -87.5l-210 -243l472 -661h-92l-430 604l-286 -323v-281h-77z"/>
<glyph glyph-name="lambdagreek" horiz-adv-x="1091" unicode="λ" d="M40 0l444 1040l-75 207q-44 119 -89.5 160.5t-127.5 41.5q-43 0 -70 -9v70q38 10 80 10q106 0 165 -53t109 -196l389 -1107q21 -59 48.5 -81t76.5 -22q37 0 64 10l7 -69q-33 -10 -79 -10q-75 0 -114.5 31t-70.5 120l-278 799h-2l-395 -942h-82z"/>
<glyph glyph-name="mugreek" horiz-adv-x="1197" unicode="μ" d="M119 -385v1462h78v-677q0 -162 85 -252.5t237 -90.5q159 0 259.5 106.5t100.5 273.5v640h78v-865q0 -79 26.5 -115t84.5 -36q35 0 64 10l7 -69q-30 -10 -83 -10q-82 0 -124.5 44t-48.5 137q-2 6 -2 59h-2q-41 -113 -139 -179.5t-223 -66.5q-119 0 -206 55.5t-112 148.5 h-2v-575h-78z"/>
<glyph glyph-name="nugreek" horiz-adv-x="994" unicode="ν" d="M415 0l-379 1077h83l347 -1005h2q195 266 274.5 450.5t79.5 391.5q0 75 -13 163h78q12 -80 12 -163q0 -229 -85.5 -424t-307.5 -490h-91z"/>
<glyph glyph-name="xigreek" horiz-adv-x="882" unicode="ξ" d="M778 -385l-66 15q54 80 54 180q0 70 -56 121t-191 101q-181 67 -278.5 127.5t-136.5 128t-39 164.5q0 148 92.5 243.5t257.5 115.5v2q-145 40 -215.5 114t-70.5 190q0 122 86 204t241 111v2h-325v72h671v-66l-113 -10q-242 -22 -366 -100.5t-124 -212.5q0 -128 111 -196 t316 -68h100v-72h-99q-484 0 -484 -326q0 -118 83 -191t322 -163q166 -60 230 -123t64 -163q0 -110 -64 -200z"/>
<glyph glyph-name="omicrongreek" horiz-adv-x="1079" unicode="ο" d="M539 56q179 0 288 130.5t109 351.5q0 220 -109.5 351t-287.5 131t-286.5 -130.5t-108.5 -351.5q0 -222 108 -352t287 -130zM539 -14q-215 0 -344.5 149.5t-129.5 402.5t129.5 403t344.5 150q216 0 345.5 -150t129.5 -403t-130 -402.5t-345 -149.5z"/>
<glyph glyph-name="pigreek" horiz-adv-x="1293" unicode="π" d="M281 1v1005h-209v71h1143v-71h-218v-796q0 -77 26.5 -113t84.5 -36q35 0 64 10l7 -69q-33 -10 -82 -10q-90 0 -133 51t-43 160v803h-565v-1005h-75z"/>
<glyph glyph-name="rhogreek" horiz-adv-x="1085" unicode="ρ" d="M86 -385v931q0 251 127 398t342 147q206 0 335.5 -153.5t129.5 -397.5q0 -250 -126 -402t-333 -152q-139 0 -249.5 83.5t-145.5 214.5h-3v-669h-77zM551 56q178 0 284.5 133.5t106.5 355.5q0 213 -107 344t-280 131q-184 0 -287.5 -126t-103.5 -351q0 -215 108 -351 t279 -136z"/>
<glyph glyph-name="sigmafinalgreek" horiz-adv-x="1023" unicode="ς" d="M778 -385l-66 15q54 82 54 178q0 69 -53.5 121.5t-191.5 101.5q-256 91 -356 205.5t-100 310.5q0 249 127 396.5t342 147.5q172 0 288 -92.5t143 -245.5h-78q-25 121 -119.5 194t-230.5 73q-182 0 -287.5 -128t-105.5 -344q0 -118 36.5 -194t124.5 -135.5t256 -122.5 q159 -59 220 -123t61 -158q0 -110 -64 -200z"/>
<glyph glyph-name="sigmagreek" horiz-adv-x="1208" unicode="σ" d="M532 57q181 0 291.5 131.5t110.5 346.5q0 218 -101.5 343.5t-277.5 125.5q-190 0 -300.5 -129t-110.5 -350q0 -210 107 -339t281 -129zM533 -14q-209 0 -338.5 149t-129.5 390q0 257 135 404.5t370 147.5h566v-71h-365v-3q112 -54 175 -177t63 -289q0 -247 -131.5 -399 t-344.5 -152z"/>
<glyph glyph-name="taugreek" horiz-adv-x="985" unicode="τ" d="M685 -9q-138 0 -197 60.5t-59 201.5v753h-369v71h873v-71h-427v-741q0 -110 43.5 -158t143.5 -48q55 0 87 10l7 -68q-39 -10 -102 -10z"/>
<glyph glyph-name="upsilongreek" horiz-adv-x="1048" unicode="υ" d="M519 -14q-194 0 -300 111t-106 315v665h77v-661q0 -174 84.5 -266.5t243.5 -92.5q173 0 268.5 135.5t95.5 374.5q0 300 -84 510h79q83 -210 83 -504q0 -274 -117 -430.5t-324 -156.5z"/>
<glyph glyph-name="phigreek" horiz-adv-x="1369" unicode="φ" d="M647 53v971q-233 -2 -373 -136t-140 -350q0 -215 140.5 -348t372.5 -137zM722 53q232 4 372.5 137t140.5 348q0 216 -140 350t-373 136v-971zM647 -385v371q-272 8 -431.5 157.5t-159.5 394.5q0 248 158.5 397t432.5 156v271h75v-271q274 -7 432.5 -156t158.5 -397 q0 -245 -159.5 -394.5t-431.5 -157.5v-371h-75z"/>
<glyph glyph-name="chigreek" horiz-adv-x="1149" unicode="χ" d="M161 -385l404 729l-275 551q-36 71 -68 95.5t-88 24.5q-38 0 -65 -9v68q37 10 79 10q77 0 120 -33t87 -121l259 -517h2l361 664h85l-408 -735l273 -545q34 -69 66 -95t84 -26q36 0 64 9l7 -68q-33 -10 -76 -10q-57 0 -95 17.5t-61.5 48t-52.5 88.5l-259 511h-2l-356 -657 h-85z"/>
<glyph glyph-name="psigreek" horiz-adv-x="1302" unicode="ψ" d="M609 -385v371q-236 0 -366 110t-130 314v667h77v-664q0 -163 103 -259.5t316 -96.5v1305h76v-1306q103 2 183 33.5t129.5 81t81.5 117.5t44 136.5t12 145.5q0 306 -87 507h80q86 -200 86 -496q0 -93 -17 -176.5t-56.5 -160.5t-99 -133t-151 -90t-205.5 -36v-370h-76z"/>
<glyph glyph-name="Iocyrillic" horiz-adv-x="1067" unicode="Ё" d="M979 73v-73h-841v1443h841v-73h-762v-594h726v-72h-726v-631h762zM710 1563q-27 0 -47 19.5t-20 47.5q0 27 20 46.5t47 19.5q28 0 48 -19.5t20 -46.5q0 -28 -20 -47.5t-48 -19.5zM406 1563q-28 0 -48 19.5t-20 47.5q0 27 20 46.5t48 19.5q27 0 47 -19.5t20 -46.5 q0 -28 -20 -47.5t-47 -19.5z"/>
<glyph glyph-name="Djecyrillic" horiz-adv-x="1558" unicode="Ђ" d="M1068 -12q-76 0 -108 13v72q33 -10 106 -10q144 0 229.5 98.5t85.5 259.5q0 172 -101.5 273t-273.5 101q-116 0 -222 -51t-166 -133v-611h-79v1370h-508v73h1096v-73h-509v-654h5q70 71 171 111t215 40q206 0 328.5 -121.5t122.5 -323.5q0 -194 -108.5 -314t-283.5 -120z "/>
<glyph glyph-name="Gjecyrillic" horiz-adv-x="1024" unicode="Ѓ" d="M217 0h-79v1443h824v-73h-745v-1370zM557 1553h-78l279 290h96z"/>
<glyph glyph-name="Ecyrillic" horiz-adv-x="1345" unicode="Є" d="M1277 422q-25 -199 -181.5 -321t-383.5 -122q-290 0 -462.5 203.5t-172.5 547.5q0 337 172 535.5t463 198.5q218 0 380 -134.5t186 -334.5h-80q-24 168 -163 281.5t-323 113.5q-245 0 -394 -165t-159 -448h743v-72h-743q4 -300 154.5 -476t398.5 -176q191 0 326.5 101.5 t158.5 267.5h80z"/>
<glyph glyph-name="Dzecyrillic" horiz-adv-x="1157" unicode="Ѕ" d="M67 385h79q9 -147 134 -240t313 -93q183 0 299.5 92.5t116.5 234.5q0 113 -81 183t-263 116l-171 42q-201 51 -294.5 136.5t-93.5 220.5q0 167 137 277t336 110q203 0 340 -106t144 -266h-79q-8 130 -122.5 214.5t-284.5 84.5q-165 0 -277.5 -88.5t-112.5 -223.5 q0 -107 81 -174t257 -111l161 -41q211 -52 307.5 -138.5t96.5 -229.5q0 -180 -139 -293t-364 -113q-222 0 -366.5 113t-153.5 293z"/>
<glyph glyph-name="Icyrillic" horiz-adv-x="355" unicode="І" d="M217 0h-79v1443h79v-1443z"/>
<glyph glyph-name="Yicyrillic" horiz-adv-x="355" unicode="Ї" d="M329 1563q-27 0 -47 19.5t-20 47.5q0 27 20 46.5t47 19.5q28 0 48 -19.5t20 -46.5q0 -28 -20 -47.5t-48 -19.5zM25 1563q-28 0 -48 19.5t-20 47.5q0 27 20 46.5t48 19.5q27 0 47 -19.5t20 -46.5q0 -28 -20 -47.5t-47 -19.5zM217 0h-79v1443h79v-1443z"/>
<glyph glyph-name="Jecyrillic" horiz-adv-x="971" unicode="Ј" d="M51 320h78q7 -119 92 -194.5t214 -75.5q150 0 234.5 89t84.5 250v1054h80v-1058q0 -189 -106.5 -299t-291.5 -110q-165 0 -273 96.5t-112 247.5z"/>
<glyph glyph-name="Ljecyrillic" horiz-adv-x="2064" unicode="Љ" d="M1143 73h374q184 0 290.5 95.5t106.5 259.5t-107 259.5t-290 95.5h-374v-710zM372 470q-6 -108 -23 -189.5t-49 -149.5t-86.5 -104t-130.5 -36q-13 0 -58 9v73q24 -8 54 -8q56 0 96 31t64 89t37 128.5t18 163.5l58 966h791v-588h387q210 0 337 -116.5t127 -310.5 t-126.5 -311t-337.5 -117h-466v1370h-637z"/>
<glyph glyph-name="Njecyrillic" horiz-adv-x="2099" unicode="Њ" d="M217 705v-705h-79v1443h79v-666h887v666h80v-666h386q211 0 337.5 -103.5t126.5 -276.5q0 -180 -126.5 -288.5t-336.5 -108.5h-467v705h-887zM1184 73h374q183 0 289.5 87.5t106.5 236.5q0 142 -107 225t-289 83h-374v-632z"/>
<glyph glyph-name="Tshecyrillic" horiz-adv-x="1578" unicode="Ћ" d="M1003 795q-112 0 -218 -51t-167 -133v-611h-79v1370h-508v73h1096v-73h-509v-654h5q72 73 172 112t213 39q201 0 323 -128.5t122 -340.5v-398h-80v389q0 185 -100.5 295.5t-269.5 110.5z"/>
<glyph glyph-name="Kjecyrillic" horiz-adv-x="1165" unicode="Ќ" d="M304 746l835 -746h-114l-803 718h-5v-718h-79v1443h79v-679h5l753 679h107zM882 1843l-297 -290h-78l279 290h96z"/>
<glyph glyph-name="Ushortcyrillic" horiz-adv-x="1138" unicode="Ў" d="M265 -9q-44 0 -69 10v73q27 -9 69 -9q89 0 151 70t127 210l-511 1098h87l463 -1005h6l437 1005h84l-468 -1062q-29 -66 -51.5 -112.5t-50.5 -94.5t-55.5 -78.5t-61 -56t-72.5 -37t-85 -11.5zM316 1789h64q0 -84 57 -133t149 -49t149 49t57 133h64q0 -109 -74.5 -172.5 t-195.5 -63.5t-195.5 63.5t-74.5 172.5z"/>
<glyph glyph-name="Dzhecyrillic" horiz-adv-x="1334" unicode="Џ" d="M629 0h-491v1443h79v-1370h900v1370h79v-1443h-491v-285h-76v285z"/>
<glyph glyph-name="Acyrillic" horiz-adv-x="1241" unicode="А" d="M618 1340l-296 -788h598l-297 788h-5zM1125 0l-180 481h-649l-179 -481h-86l550 1443h80l549 -1443h-85z"/>
<glyph glyph-name="Becyrillic" horiz-adv-x="1150" unicode="Б" d="M217 73h379q183 0 289.5 92t106.5 250q0 157 -107 249.5t-289 92.5h-379v-684zM1072 415q0 -188 -126.5 -301.5t-336.5 -113.5h-471v1443h811v-73h-732v-540h391q211 0 337.5 -113t126.5 -302z"/>
<glyph glyph-name="Vecyrillic" horiz-adv-x="1185" unicode="В" d="M217 72h410q194 0 304 84.5t110 230.5q0 150 -115 235t-320 85h-389v-635zM217 1371v-593h376q170 0 271 83t101 225q0 130 -96 207.5t-257 77.5h-395zM635 0h-497v1443h486q188 0 304.5 -97t116.5 -254q0 -129 -77.5 -221t-206.5 -117v-6q158 -17 259 -114t101 -249 q0 -178 -130 -281.5t-356 -103.5z"/>
<glyph glyph-name="Gecyrillic" horiz-adv-x="1024" unicode="Г" d="M217 0h-79v1443h824v-73h-745v-1370z"/>
<glyph glyph-name="Decyrillic" horiz-adv-x="1372" unicode="Д" d="M91 0v-286h-75v359h96q137 68 157 399l59 971h833v-1370h187v-359h-76v286h-1181zM347 467q-9 -142 -35.5 -237.5t-83.5 -150.5v-6h854v1297h-681z"/>
<glyph glyph-name="Iecyrillic" horiz-adv-x="1067" unicode="Е" d="M979 73v-73h-841v1443h841v-73h-762v-594h726v-72h-726v-631h762z"/>
<glyph glyph-name="Zhecyrillic" horiz-adv-x="1804" unicode="Ж" d="M1027 747l757 -747h-111l-727 718h-5v-718h-80v718h-5l-728 -718h-109l756 745l-702 698h107l676 -679h5v679h80v-679h5l677 679h104z"/>
<glyph glyph-name="Zecyrillic" horiz-adv-x="1121" unicode="З" d="M366 712v72h172q178 0 282.5 85.5t104.5 223.5q0 130 -99.5 216t-263.5 86q-154 0 -256 -83t-120 -215h-77q18 165 141 268t314 103q195 0 318 -106t123 -265q0 -130 -81.5 -221.5t-224.5 -119.5v-5q169 -13 263.5 -110t94.5 -251q0 -178 -138.5 -296t-360.5 -118 q-207 0 -345 111t-148 274h78q10 -131 127.5 -222t288.5 -91q188 0 302.5 97.5t114.5 246.5q0 154 -110.5 237t-325.5 83h-174z"/>
<glyph glyph-name="Iicyrillic" horiz-adv-x="1361" unicode="И" d="M1145 0v1311h-7l-922 -1311h-78v1443h78v-1312h8l921 1312h79v-1443h-79z"/>
<glyph glyph-name="Iishortcyrillic" horiz-adv-x="1361" unicode="Й" d="M1145 0v1311h-7l-922 -1311h-78v1443h78v-1312h8l921 1312h79v-1443h-79zM411 1789h64q0 -84 57 -133t149 -49t149 49t57 133h64q0 -109 -74.5 -172.5t-195.5 -63.5t-195.5 63.5t-74.5 172.5z"/>
<glyph glyph-name="Kacyrillic" horiz-adv-x="1168" unicode="К" d="M304 746l835 -746h-114l-803 718h-5v-718h-79v1443h79v-679h5l753 679h107z"/>
<glyph glyph-name="Elcyrillic" horiz-adv-x="1288" unicode="Л" d="M1150 0h-79v1370h-644l-55 -900q-7 -110 -24.5 -193.5t-50 -150t-86.5 -101t-128 -34.5q-13 0 -58 9v73q24 -8 54 -8q103 0 153.5 107t61.5 305l58 966h798v-1443z"/>
<glyph glyph-name="Emcyrillic" horiz-adv-x="1624" unicode="М" d="M1486 1443v-1443h-76v1279h-4l-556 -1276h-76l-556 1276h-4v-1279h-76v1443h88l583 -1340h6l581 1340h90z"/>
<glyph glyph-name="Encyrillic" horiz-adv-x="1347" unicode="Н" d="M1209 0h-79v705h-913v-705h-79v1443h79v-666h913v666h79v-1443z"/>
<glyph glyph-name="Ocyrillic" horiz-adv-x="1440" unicode="О" d="M720 1390q-257 0 -409.5 -180.5t-152.5 -487.5q0 -306 152.5 -487.5t409.5 -181.5t409.5 181t152.5 488t-152.5 487.5t-409.5 180.5zM720 1464q295 0 469 -201t174 -541q0 -342 -173.5 -542.5t-469.5 -200.5t-469.5 200.5t-173.5 542.5q0 340 174 541t469 201z"/>
<glyph glyph-name="Pecyrillic" horiz-adv-x="1334" unicode="П" d="M1196 0h-79v1370h-900v-1370h-79v1443h1058v-1443z"/>
<glyph glyph-name="Ercyrillic" horiz-adv-x="1136" unicode="Р" d="M217 1371v-717h377q183 0 289.5 96t106.5 262q0 167 -106.5 263t-289.5 96h-377zM138 1443h469q211 0 337.5 -117.5t126.5 -313.5q0 -195 -127 -312.5t-337 -117.5h-390v-582h-79v1443z"/>
<glyph glyph-name="Escyrillic" horiz-adv-x="1345" unicode="С" d="M712 -21q-290 0 -462.5 203.5t-172.5 547.5q0 337 172 535.5t463 198.5q218 0 380 -134.5t186 -334.5h-80q-24 168 -163 281.5t-323 113.5q-254 0 -404 -178t-150 -482q0 -310 150.5 -493.5t403.5 -183.5q191 0 326.5 101.5t158.5 267.5h80q-25 -199 -181.5 -321 t-383.5 -122z"/>
<glyph glyph-name="Tecyrillic" horiz-adv-x="1158" unicode="Т" d="M619 0h-80v1370h-508v73h1096v-73h-508v-1370z"/>
<glyph glyph-name="Ucyrillic" horiz-adv-x="1138" unicode="У" d="M265 -9q-44 0 -69 10v73q27 -9 69 -9q89 0 151 70t127 210l-511 1098h87l463 -1005h6l437 1005h84l-468 -1062q-29 -66 -51.5 -112.5t-50.5 -94.5t-55.5 -78.5t-61 -56t-72.5 -37t-85 -11.5z"/>
<glyph glyph-name="Efcyrillic" horiz-adv-x="1527" unicode="Ф" d="M724 145q-303 2 -479.5 157.5t-176.5 420.5t176.5 420.5t479.5 157.5v155h79v-155q302 -2 479 -157.5t177 -420.5t-176.5 -420.5t-479.5 -157.5v-158h-79v158zM1379 723q0 230 -156 367t-420 139v-1012q263 2 419.5 139.5t156.5 366.5zM724 217v1012 q-264 -2 -420.5 -139.5t-156.5 -366.5t157 -366.5t420 -139.5z"/>
<glyph glyph-name="Xacyrillic" horiz-adv-x="1235" unicode="Х" d="M52 0l516 722v2l-514 719h95l469 -658h2l471 658h92l-518 -721v-2l515 -720h-95l-468 656h-2l-471 -656h-92z"/>
<glyph glyph-name="Tsecyrillic" horiz-adv-x="1400" unicode="Ц" d="M1376 -285h-75v285h-1163v1443h79v-1370h893v1370h79v-1370h187v-358z"/>
<glyph glyph-name="Checyrillic" horiz-adv-x="1226" unicode="Ч" d="M1088 0h-79v737h-4q-64 -65 -169.5 -113t-247.5 -48q-213 0 -346 131t-133 347v389h79v-380q0 -192 111.5 -302.5t288.5 -110.5q83 0 159 20.5t127.5 52.5t85 62t49.5 56v602h79v-1443z"/>
<glyph glyph-name="Shacyrillic" horiz-adv-x="1770" unicode="Ш" d="M138 0v1443h79v-1370h629v1370h79v-1370h628v1370h79v-1443h-1494z"/>
<glyph glyph-name="Shchacyrillic" horiz-adv-x="1844" unicode="Щ" d="M1820 -285h-76v285h-1606v1443h79v-1370h629v1370h79v-1370h628v1370h79v-1370h188v-358z"/>
<glyph glyph-name="Hardsigncyrillic" horiz-adv-x="1389" unicode="Ъ" d="M473 73h374q184 0 290.5 95.5t106.5 259.5t-107 259.5t-290 95.5h-374v-710zM861 0h-467v1370h-352v73h431v-588h387q210 0 337 -116.5t127 -310.5t-126.5 -311t-336.5 -117z"/>
<glyph glyph-name="Yericyrillic" horiz-adv-x="1509" unicode="Ы" d="M217 73h374q184 0 290.5 95.5t106.5 259.5t-107 259.5t-290 95.5h-374v-710zM138 0v1443h79v-588h387q210 0 337 -116.5t127 -310.5t-126.5 -311t-337.5 -117h-466zM1371 0h-79v1443h79v-1443z"/>
<glyph glyph-name="Softsigncyrillic" horiz-adv-x="1133" unicode="Ь" d="M217 73h374q184 0 290.5 95.5t106.5 259.5t-107 259.5t-290 95.5h-374v-710zM138 0v1443h79v-588h387q210 0 337 -116.5t127 -310.5t-126.5 -311t-337.5 -117h-466z"/>
<glyph glyph-name="Ereversedcyrillic" horiz-adv-x="1353" unicode="Э" d="M649 -21q-234 0 -394 121.5t-188 321.5h80q26 -163 166.5 -266t335.5 -103q248 0 395.5 177t150.5 475h-736v72h734q-11 281 -158 447t-386 166q-185 0 -330 -113.5t-172 -281.5h-80q18 132 100.5 239.5t209.5 168.5t272 61q290 0 458.5 -200.5t168.5 -541.5 q0 -344 -167.5 -543.5t-459.5 -199.5z"/>
<glyph glyph-name="IUcyrillic" horiz-adv-x="1853" unicode="Ю" d="M1152 1393q-249 0 -396.5 -182t-147.5 -489t147 -489.5t397 -182.5q249 0 396 182.5t147 489.5t-147 489t-396 182zM1152 -24q-287 0 -453 195.5t-171 533.5h-311v-705h-79v1443h79v-666h312q14 321 180.5 505.5t442.5 184.5q289 0 456.5 -200t167.5 -545t-167 -545.5 t-457 -200.5z"/>
<glyph glyph-name="IAcyrillic" horiz-adv-x="1157" unicode="Я" d="M545 612l-416 -612h-92l423 622q-167 25 -268.5 131.5t-101.5 273.5q0 191 125 303.5t338 112.5h466v-1443h-79v612h-395zM940 685v685h-374q-185 0 -290.5 -91.5t-105.5 -251.5t105.5 -251t290.5 -91h374z"/>
<glyph glyph-name="acyrillic" horiz-adv-x="1040" unicode="а" d="M453 -14q-158 0 -257.5 84.5t-99.5 219.5q0 138 97.5 216t287.5 92l369 27v96q0 141 -81.5 220t-226.5 79q-137 0 -224 -67t-106 -189h-75q14 149 125 238t281 89q177 0 280.5 -98t103.5 -267v-726h-75v232h-2q-40 -110 -150 -178t-247 -68zM463 55q161 0 274 100.5 t113 243.5v161l-359 -27q-155 -11 -236 -73t-81 -170q0 -103 81.5 -169t207.5 -66z"/>
<glyph glyph-name="becyrillic" horiz-adv-x="1125" unicode="б" d="M569 51q184 0 293 130.5t109 351.5q0 215 -108.5 342t-293.5 127t-293.5 -127t-108.5 -342q0 -221 108.5 -351.5t293.5 -130.5zM569 -20q-231 0 -355.5 160t-124.5 457q0 199 18.5 343.5t57.5 250.5t104.5 170t156.5 94.5t216 32.5q88 0 160 7q115 10 177 37v-68 q-52 -29 -171 -39q-76 -9 -165 -9q-125 -1 -209.5 -33.5t-141.5 -107.5t-87.5 -189t-45.5 -289h4q50 131 158 203.5t255 72.5q216 0 345 -147.5t129 -392.5q0 -252 -131 -402.5t-350 -150.5z"/>
<glyph glyph-name="vecyrillic" horiz-adv-x="984" unicode="в" d="M129 0v1077h401q150 0 237.5 -71t87.5 -192q0 -97 -56 -165t-148 -85v-4q112 -10 186 -78.5t74 -180.5q0 -146 -97.5 -223.5t-276.5 -77.5h-408zM518 523h-312v-455h329q148 0 224 59t76 175q0 108 -84 164.5t-233 56.5zM525 1008h-319v-417h308q123 0 193.5 58t70.5 159 q0 95 -66.5 147.5t-186.5 52.5z"/>
<glyph glyph-name="gecyrillic" horiz-adv-x="859" unicode="г" d="M804 1009h-598v-1009h-77v1077h675v-68z"/>
<glyph glyph-name="decyrillic" horiz-adv-x="1188" unicode="д" d="M98 -285h-74v353h85q105 69 133 387q29 323 44 622h693v-1009h178v-353h-74v285h-985v-285zM902 68v941h-546q-24 -389 -41 -559q-13 -138 -37 -232.5t-71 -146.5v-3h695z"/>
<glyph glyph-name="iecyrillic" horiz-adv-x="1082" unicode="е" d="M915 301h79q-27 -139 -145.5 -227t-293.5 -88q-221 0 -350.5 146.5t-129.5 404.5q0 250 129.5 402t342.5 152q208 0 334 -142.5t126 -377.5v-45h-853v-4q0 -218 109 -342t293 -124q144 0 239.5 68t119.5 177zM546 1021q-168 0 -275 -118t-116 -311h773q-1 191 -106.5 310 t-275.5 119z"/>
<glyph glyph-name="zhecyrillic" horiz-adv-x="1424" unicode="ж" d="M830 563l568 -563h-108l-537 535h-4v-535h-77v535h-4l-537 -535h-105l566 560l-542 517h104l514 -495h4v495h77v-495h4l514 495h102z"/>
<glyph glyph-name="zecyrillic" horiz-adv-x="939" unicode="з" d="M477 -19q-171 0 -279.5 80t-133.5 212h78q23 -99 110 -161.5t225 -62.5q141 0 224.5 64.5t83.5 176.5q0 115 -84 173t-235 58h-173v68h173q133 0 208 59t75 160q0 98 -72.5 156.5t-197.5 58.5q-132 0 -214.5 -64.5t-104.5 -168.5h-77q25 133 126.5 217t268.5 84 q162 0 254.5 -76t92.5 -205q0 -94 -61 -162t-156 -86v-5q111 -15 182.5 -82.5t71.5 -179.5q0 -148 -105 -231t-280 -83z"/>
<glyph glyph-name="iicyrillic" horiz-adv-x="1103" unicode="и" d="M206 0h-77v1077h77v-955h5l686 955h77v-1077h-77v954h-4z"/>
<glyph glyph-name="iishortcyrillic" horiz-adv-x="1103" unicode="й" d="M206 0h-77v1077h77v-955h5l686 955h77v-1077h-77v954h-4zM297 1503h65q0 -91 56 -144.5t152 -53.5t152 53.5t56 144.5h65q0 -117 -74 -185t-199 -68t-199 68t-74 185z"/>
<glyph glyph-name="kacyrillic" horiz-adv-x="948" unicode="к" d="M289 561l633 -561h-109l-603 535h-4v-535h-77v1077h77v-495h4l580 495h104z"/>
<glyph glyph-name="elcyrillic" horiz-adv-x="1091" unicode="л" d="M327 450q-7 -84 -16.5 -146t-28 -124t-44 -101t-66 -63.5t-93.5 -24.5q-41 0 -56 10v71q18 -9 54 -9q35 0 62.5 20t46 53t32 85t21.5 107t14 127q24 272 42 622h667v-1077h-77v1009h-519q-25 -412 -39 -559z"/>
<glyph glyph-name="emcyrillic" horiz-adv-x="1382" unicode="м" d="M206 0h-77v1077h90l472 -976h4l470 976h87v-1077h-77v929h-5l-448 -921h-62l-449 921h-5v-929z"/>
<glyph glyph-name="encyrillic" horiz-adv-x="1092" unicode="н" d="M885 0v524h-679v-524h-77v1077h77v-485h679v485h77v-1077h-77z"/>
<glyph glyph-name="ocyrillic" horiz-adv-x="1109" unicode="о" d="M554 56q182 0 291.5 130.5t109.5 351.5q0 222 -109 352t-292 130t-292 -130t-109 -352t109.5 -352t291.5 -130zM554 -14q-216 0 -347.5 150t-131.5 402q0 253 131.5 403t347.5 150q217 0 348.5 -150t131.5 -403q0 -252 -132 -402t-348 -150z"/>
<glyph glyph-name="pecyrillic" horiz-adv-x="1082" unicode="п" d="M875 0v1009h-669v-1009h-77v1077h823v-1077h-77z"/>
<glyph glyph-name="ercyrillic" horiz-adv-x="1139" unicode="р" d="M599 56q172 0 279 133.5t107 348.5t-107 348.5t-279 133.5q-173 0 -282.5 -134t-109.5 -348q0 -213 109.5 -347.5t282.5 -134.5zM608 1091q203 0 329.5 -153.5t126.5 -399.5t-126 -399t-329 -153q-146 0 -254.5 84t-144.5 214h-3v-629h-78v1422h73v-288h3 q37 131 147.5 216.5t255.5 85.5z"/>
<glyph glyph-name="escyrillic" horiz-adv-x="1037" unicode="с" d="M968 774h-78q-30 110 -123.5 178t-224.5 68q-181 0 -288.5 -130.5t-107.5 -351.5t107.5 -351.5t289.5 -130.5q128 0 220 63t124 168h78q-33 -136 -147 -218.5t-276 -82.5q-217 0 -345.5 149t-128.5 403q0 253 129 403t345 150q163 0 278.5 -89.5t147.5 -227.5z"/>
<glyph glyph-name="tecyrillic" horiz-adv-x="940" unicode="т" d="M900 1077v-68h-391v-1009h-77v1009h-392v68h860z"/>
<glyph glyph-name="ucyrillic" horiz-adv-x="954" unicode="у" d="M203 -354q-24 0 -54 9v69q24 -8 56 -8q72 0 117 45t87 154l27 70l-412 1092h83l369 -1001h2l369 1001h82l-417 -1111q-73 -193 -134 -256.5t-175 -63.5z"/>
<glyph glyph-name="efcyrillic" horiz-adv-x="1379" unicode="ф" d="M652 -18q-264 7 -420.5 154.5t-156.5 398.5q0 252 157 400t420 155v375h76v-375q262 -7 419 -154.5t157 -399.5t-157 -399.5t-419 -154.5v-367h-76v367zM1226 536q0 220 -135.5 349t-362.5 135v-969q227 7 362.5 136t135.5 349zM652 51v969q-228 -6 -363.5 -135.5 t-135.5 -349.5q0 -219 135.5 -348t363.5 -136z"/>
<glyph glyph-name="hacyrillic" horiz-adv-x="917" unicode="х" d="M459 485h-2l-347 -485h-90l395 546l-394 531h92l345 -471h3l344 471h92l-394 -529l392 -548h-90z"/>
<glyph glyph-name="tsecyrillic" horiz-adv-x="1159" unicode="ц" d="M1127 -285h-74v285h-924v1077h77v-1009h667v1009h77v-1009h177v-353z"/>
<glyph glyph-name="checyrillic" horiz-adv-x="1008" unicode="ч" d="M879 0h-77v543h-4q-52 -63 -136 -100t-186 -37q-177 0 -276.5 106t-99.5 280v285h77v-275q0 -150 80 -238t223 -88q109 0 193.5 47.5t128.5 118.5v435h77v-1077z"/>
<glyph glyph-name="shacyrillic" horiz-adv-x="1568" unicode="ш" d="M129 0v1077h77v-1009h539v1009h77v-1009h539v1009h77v-1077h-1309z"/>
<glyph glyph-name="shchacyrillic" horiz-adv-x="1648" unicode="щ" d="M1616 -285h-74v285h-1413v1077h77v-1009h539v1009h77v-1009h539v1009h77v-1009h178v-353z"/>
<glyph glyph-name="hardsigncyrillic" horiz-adv-x="1122" unicode="ъ" d="M681 615h-274v-547h274q134 0 214 74.5t80 199.5q0 124 -80.5 198.5t-213.5 74.5zM681 0h-351v1009h-290v68h367v-395h274q170 0 270.5 -92t100.5 -248q0 -157 -100.5 -249.5t-270.5 -92.5z"/>
<glyph glyph-name="yericyrillic" horiz-adv-x="1250" unicode="ы" d="M129 0v1077h77v-395h275q168 0 269 -92t101 -248t-101 -249t-269 -93h-352zM481 615h-275v-547h275q133 0 213 74.5t80 199.5q0 124 -80 198.5t-213 74.5zM1044 0v1077h77v-1077h-77z"/>
<glyph glyph-name="softsigncyrillic" horiz-adv-x="921" unicode="ь" d="M129 0v1077h77v-395h275q168 0 269 -92t101 -248t-101 -249t-269 -93h-352zM481 615h-275v-547h275q133 0 213 74.5t80 199.5q0 124 -80 198.5t-213 74.5z"/>
<glyph glyph-name="ereversedcyrillic" horiz-adv-x="1046" unicode="э" d="M152 287q33 -105 126 -168t222 -63q179 0 284.5 126t107.5 342h-572v68h570q-12 197 -116 312.5t-273 115.5q-131 0 -226.5 -68.5t-125.5 -177.5h-78q31 138 148.5 227.5t281.5 89.5q216 0 343 -150t127 -403q0 -254 -127 -403t-344 -149q-162 0 -278 82.5t-148 218.5h78 z"/>
<glyph glyph-name="iucyrillic" horiz-adv-x="1494" unicode="ю" d="M950 51q178 0 284.5 131t106.5 353q0 224 -106.5 354.5t-284.5 130.5q-179 0 -285 -130.5t-106 -354.5q0 -223 106 -353.5t285 -130.5zM950 -20q-213 0 -339 146t-130 398h-275v-524h-77v1077h77v-485h277q14 231 140 365t327 134q215 0 342 -150t127 -406t-127.5 -405.5 t-341.5 -149.5z"/>
<glyph glyph-name="iacyrillic" horiz-adv-x="954" unicode="я" d="M748 0v434h-274l-325 -434h-92l333 444q-140 16 -221 98t-81 210q0 150 100.5 237.5t270.5 87.5h366v-1077h-77zM459 502h289v507h-289q-134 0 -214 -69.5t-80 -186.5q0 -113 80.5 -182t213.5 -69z"/>
<glyph glyph-name="iocyrillic" horiz-adv-x="1082" unicode="ё" d="M699 1256q-27 0 -47 19.5t-20 47.5q0 27 20 46.5t47 19.5q28 0 48 -19.5t20 -46.5q0 -28 -20 -47.5t-48 -19.5zM395 1256q-28 0 -48 19.5t-20 47.5q0 27 20 46.5t48 19.5q27 0 47 -19.5t20 -46.5q0 -28 -20 -47.5t-47 -19.5zM915 301h79q-27 -139 -145.5 -227t-293.5 -88 q-221 0 -350.5 146.5t-129.5 404.5q0 250 129.5 402t342.5 152q208 0 334 -142.5t126 -377.5v-45h-853v-4q0 -218 109 -342t293 -124q144 0 239.5 68t119.5 177zM546 1021q-168 0 -275 -118t-116 -311h773q-1 191 -106.5 310t-275.5 119z"/>
<glyph glyph-name="djecyrillic" horiz-adv-x="1149" unicode="ђ" d="M1026 -81q0 -145 -68.5 -209.5t-210.5 -64.5h-29v69h27q108 0 156 47.5t48 154.5v770q0 151 -94.5 242.5t-241.5 91.5q-157 0 -259.5 -106.5t-102.5 -276.5v-637h-78v1272h-142v62h142v186h78v-186h289v-62h-289v-424h4q41 113 141 178t232 65q177 0 287.5 -106.5 t110.5 -284.5v-781z"/>
<glyph glyph-name="gjecyrillic" horiz-adv-x="862" unicode="ѓ" d="M804 1009h-598v-1009h-77v1077h675v-68zM472 1253h-74l230 303h93z"/>
<glyph glyph-name="ecyrillic" horiz-adv-x="1061" unicode="є" d="M901 287h79q-33 -136 -147.5 -218.5t-275.5 -82.5q-217 0 -346 149t-129 403q0 253 129 403t345 150q164 0 279.5 -89.5t146.5 -227.5h-78q-30 110 -123.5 178t-224.5 68q-169 0 -275 -115.5t-118 -312.5h571v-68h-573q2 -215 109.5 -341.5t286.5 -126.5q128 0 220 63 t124 168z"/>
<glyph glyph-name="dzecyrillic" horiz-adv-x="943" unicode="ѕ" d="M104 801q0 127 106.5 208.5t263.5 81.5q162 0 265.5 -88.5t116.5 -235.5h-76q-12 115 -93.5 185.5t-213.5 70.5q-122 0 -207.5 -61.5t-85.5 -157.5q0 -78 54.5 -124t171.5 -74l167 -41q161 -39 230.5 -104t69.5 -176q0 -133 -112 -216t-286 -83q-171 0 -284 91t-122 227 h78q11 -108 102.5 -179.5t227.5 -71.5q137 0 228 63t91 164q0 84 -57 134.5t-189 81.5l-173 42q-139 33 -206 96.5t-67 166.5z"/>
<glyph glyph-name="icyrillic" horiz-adv-x="377" unicode="і" d="M188 1341q-26 0 -44 18t-18 43q0 26 18 44t44 18t44.5 -18t18.5 -44q0 -25 -18.5 -43t-44.5 -18zM149 0v1077h78v-1077h-78z"/>
<glyph glyph-name="yicyrillic" horiz-adv-x="356" unicode="ї" d="M330 1256q-27 0 -47 19.5t-20 47.5q0 27 20 46.5t47 19.5q28 0 48 -19.5t20 -46.5q0 -28 -20 -47.5t-48 -19.5zM26 1256q-28 0 -48 19.5t-20 47.5q0 27 20 46.5t48 19.5q27 0 47 -19.5t20 -46.5q0 -28 -20 -47.5t-47 -19.5zM139 0v1077h78v-1077h-78z"/>
<glyph glyph-name="jecyrillic" horiz-adv-x="360" unicode="ј" d="M178 1341q-26 0 -44 18t-18 43q0 26 18 44t44 18t44.5 -18t18.5 -44q0 -25 -18.5 -43t-44.5 -18zM217 1077v-1157q0 -145 -68 -210t-210 -65h-30v69h27q107 0 155 47.5t48 154.5v1161h78z"/>
<glyph glyph-name="ljecyrillic" horiz-adv-x="1677" unicode="љ" d="M1236 615h-274v-547h274q134 0 214 74.5t80 199.5q0 124 -80.5 198.5t-213.5 74.5zM327 450q-7 -84 -16.5 -146t-28 -124t-44 -101t-66 -63.5t-93.5 -24.5q-41 0 -56 10v71q18 -9 54 -9q35 0 62.5 20t46 53t32 85t21.5 107t14 127q24 272 42 622h667v-395h274 q170 0 270.5 -92t100.5 -248q0 -157 -100.5 -249.5t-270.5 -92.5h-351v1009h-519q-25 -412 -39 -559z"/>
<glyph glyph-name="njecyrillic" horiz-adv-x="1657" unicode="њ" d="M865 0v550h-659v-550h-77v1077h77v-459h659v459h77v-457h277q169 0 268.5 -84t99.5 -226t-99.5 -226t-268.5 -84h-354zM1219 552h-277v-484h277q133 0 212 66t79 176q0 111 -79 176.5t-212 65.5z"/>
<glyph glyph-name="tshecyrillic" horiz-adv-x="1149" unicode="ћ" d="M251 848h4q41 113 141 178t232 65q177 0 287.5 -106.5t110.5 -284.5v-700h-77v686q0 151 -94.5 242.5t-241.5 91.5q-157 0 -259.5 -106.5t-102.5 -276.5v-637h-78v1272h-142v62h142v186h78v-186h289v-62h-289v-424z"/>
<glyph glyph-name="kjecyrillic" horiz-adv-x="948" unicode="ќ" d="M289 561l633 -561h-109l-603 535h-4v-535h-77v1077h77v-495h4l580 495h104zM745 1556l-249 -303h-74l230 303h93z"/>
<glyph glyph-name="ushortcyrillic" horiz-adv-x="954" unicode="ў" d="M203 -354q-24 0 -54 9v69q24 -8 56 -8q72 0 117 45t87 154l27 70l-412 1092h83l369 -1001h2l369 1001h82l-417 -1111q-73 -193 -134 -256.5t-175 -63.5zM220 1503h65q0 -91 56 -144.5t152 -53.5t152 53.5t56 144.5h65q0 -117 -74 -185t-199 -68t-199 68t-74 185z"/>
<glyph glyph-name="dzhecyrillic" horiz-adv-x="1082" unicode="џ" d="M952 0h-374v-285h-74v285h-375v1077h77v-1009h669v1009h77v-1077z"/>
<glyph glyph-name="Geupturncyrillic" horiz-adv-x="1024" unicode="Ґ" d="M217 1370v-1370h-79v1443h749v258h75v-331h-745z"/>
<glyph glyph-name="geupturncyrillic" horiz-adv-x="859" unicode="ґ" d="M804 1009h-598v-1009h-77v1077h600v257h75v-325z"/>
<glyph glyph-name="enspace" horiz-adv-x="1095" unicode=" "/>
<glyph glyph-name="emspace" horiz-adv-x="1764" unicode=" "/>
<glyph glyph-name="thinspace" horiz-adv-x="410" unicode=" "/>
<glyph glyph-name="endash" horiz-adv-x="1024" unicode="–" d="M1024 550h-1024v73h1024v-73z"/>
<glyph glyph-name="emdash" horiz-adv-x="2048" unicode="—" d="M2048 550h-2048v73h2048v-73z"/>
<glyph glyph-name="quoteleft" horiz-adv-x="404" unicode="‘" d="M224 984l-137 459h78l131 -459h-72z"/>
<glyph glyph-name="quotesinglbase" horiz-adv-x="418" unicode="‚" d="M168 -360h-72l130 459h78z"/>
<glyph glyph-name="quotedblleft" horiz-adv-x="671" unicode="“" d="M484 984l-122 459h78l116 -459h-72zM216 984l-121 459h77l117 -459h-73z"/>
<glyph glyph-name="quotedblright" horiz-adv-x="671" unicode="”" d="M188 984h-73l117 459h77zM455 984h-73l117 459h77z"/>
<glyph glyph-name="dagger" horiz-adv-x="953" unicode="†" d="M515 1063v-681h-72v681h-318v67h318v301h72v-301h314v-67h-314z"/>
<glyph glyph-name="daggerdbl" horiz-adv-x="953" unicode="‡" d="M829 676h-314v-294h-72v294h-318v68h318v330h-318v67h318v290h72v-290h314v-67h-315v-330h315v-68z"/>
<glyph glyph-name="ellipsis" horiz-adv-x="1459" unicode="…" d="M1212 -10q-29 0 -50 20.5t-21 49.5t21 49.5t50 20.5t49.5 -20.5t20.5 -49.5t-20.5 -49.5t-49.5 -20.5zM730 -10q-29 0 -49.5 20.5t-20.5 49.5t20.5 49.5t49.5 20.5t49.5 -20.5t20.5 -49.5t-20.5 -49.5t-49.5 -20.5zM248 -10q-29 0 -49.5 20.5t-20.5 49.5t20.5 49.5 t49.5 20.5t49.5 -20.5t20.5 -49.5t-20.5 -49.5t-49.5 -20.5z"/>
<glyph glyph-name="perthousand" horiz-adv-x="2011" unicode="‰" d="M211 0h-85l1075 1443h85zM303 823q84 0 132 77.5t48 208.5t-47.5 208t-132.5 77q-84 0 -131.5 -77.5t-47.5 -207.5q0 -131 47.5 -208.5t131.5 -77.5zM556 1109q0 -158 -67.5 -252t-185.5 -94q-117 0 -185 94t-68 252q0 157 68 251t185 94q118 0 185.5 -93.5t67.5 -251.5z M1117 48q84 0 132 77.5t48 208.5t-47.5 208t-132.5 77q-84 0 -131.5 -77.5t-47.5 -207.5q0 -131 47.5 -208.5t131.5 -77.5zM1370 334q0 -158 -67.5 -252t-185.5 -94q-117 0 -185 94t-68 252q0 157 68 251t185 94q118 0 185.5 -93.5t67.5 -251.5zM1708 48q84 0 132 77.5 t48 208.5t-47.5 208t-132.5 77q-84 0 -131.5 -77.5t-47.5 -207.5q0 -131 47.5 -208.5t131.5 -77.5zM1961 334q0 -158 -67.5 -252t-185.5 -94q-117 0 -185 94t-68 252q0 157 68 251t185 94q118 0 185.5 -93.5t67.5 -251.5z"/>
<glyph glyph-name="u2032" horiz-adv-x="404" unicode="′" d="M180 984h-72l131 459h78z"/>
<glyph glyph-name="u2033" horiz-adv-x="671" unicode="″" d="M462 984h-72l116 459h78zM180 984h-72l116 459h78z"/>
<glyph glyph-name="guilsinglleft" horiz-adv-x="771" unicode="‹" d="M252 571v-8l366 -408h-95l-370 410v5l370 409h95z"/>
<glyph glyph-name="guilsinglright" horiz-adv-x="771" unicode="›" d="M518 571l-365 408h95l370 -409v-5l-370 -410h-95l365 408v8z"/>
<glyph glyph-name="fraction" horiz-adv-x="206" unicode="⁄" d="M-392 0h-85l1075 1443h85z"/>
<glyph glyph-name="Euro" d="M1141 1450v-74q-53 14 -152 14q-229 0 -395.5 -130.5t-212.5 -370.5h584v-66h-594q-5 -55 -5 -102q0 -62 7 -112h592v-65h-582q47 -235 213 -363.5t393 -128.5q99 0 152 14v-73q-53 -14 -152 -14q-170 0 -312 63t-242.5 192t-133.5 310h-257v65h247q-6 54 -6 113 q0 48 5 101h-246v66h255q23 139 87 249t155.5 181t205.5 108t242 37q99 0 152 -14z" unicode="€"/>
<glyph glyph-name="u20BD" d="M782 295h-436v-295h-80v295h-200v65h200v234h-200v71h200v778h405q210 0 336.5 -116.5t126.5 -308.5t-127 -308t-337 -116h-324v-234h436v-65zM346 1371v-706h312q182 0 288.5 95t106.5 258q0 164 -106 258.5t-289 94.5h-312z" unicode="₽"/>
<glyph glyph-name="trademark" horiz-adv-x="1895" unicode="™" d="M1027 595h-67v848h78l335 -718h4l331 718h78v-848h-67v718h-3l-316 -678h-50l-319 678h-4v-718zM487 595h-71v783h-310v65h691v-65h-310v-783z"/>
<glyph glyph-name="partialdiff" horiz-adv-x="1225" unicode="∂" d="M631 864q-166 0 -277 -124t-111 -309q0 -164 95.5 -273t238.5 -109q116 0 209.5 81t146 224.5t52.5 321.5q-62 88 -156 138t-198 50zM1061 740q0 -348 -133.5 -556t-356.5 -208q-174 0 -290.5 131t-116.5 326q0 215 131.5 359.5t328.5 144.5q103 0 201.5 -50t154.5 -131 h9q-6 311 -163.5 514t-417.5 236l19 69q292 -39 463 -264t171 -571z"/>
<glyph glyph-name="product" horiz-adv-x="1291" unicode="∏" d="M1004 -81h-79v1451h-558v-1451h-79v1451h-186v73h1088v-73h-186v-1451z"/>
<glyph glyph-name="summation" horiz-adv-x="1135" unicode="∑" d="M1014 -208v-72h-890v72l517 815v3l-515 761v72h891v-72h-800v-2l512 -759v-3l-515 -813v-2h800z"/>
<glyph glyph-name="minus" d="M1086 539h-980v73h980v-73z" unicode="−"/>
<glyph glyph-name="radical" horiz-adv-x="1423" unicode="√" d="M69 698h81l285 -828h8l471 1573h459v-73h-404l-482 -1593h-95z"/>
<glyph glyph-name="infinity" horiz-adv-x="1822" unicode="∞" d="M1650 605q0 132 -84.5 216t-216.5 84q-107 0 -198 -69t-195 -229q95 -155 192 -226.5t210 -71.5q129 0 210.5 82.5t81.5 213.5zM474 905q-133 0 -217.5 -84t-84.5 -216q0 -130 82 -213t210 -83q115 0 213 73t189 225q-108 162 -197 230t-195 68zM1355 236 q-254 0 -444 313q-188 -312 -444 -312q-160 0 -265.5 105.5t-105.5 265.5t107.5 265t270.5 105q123 0 224 -72t213 -238q109 164 211.5 236.5t226.5 72.5q163 0 270 -105.5t107 -265.5q0 -159 -105.5 -264.5t-265.5 -105.5z"/>
<glyph glyph-name="approxequal" d="M407 410q-150 0 -153 -199h-68q-1 129 58 198t165 69q86 0 207 -118q110 -106 169 -106q152 0 153 199h69q0 -130 -59 -199t-165 -69q-84 0 -206 118q-111 107 -170 107zM407 785q-150 0 -153 -199h-68q-1 129 58 198t165 69q86 0 207 -118q111 -107 169 -107 q152 0 153 199h69q0 -130 -59 -198.5t-165 -68.5q-85 0 -206 118q-113 107 -170 107z" unicode="≈"/>
<glyph glyph-name="notequal" d="M1081 729h-381l-123 -307h504v-69h-532l-135 -336h-70l135 336h-367v69h395l123 307h-518v69h545l122 303h70l-122 -303h354v-69z" unicode="≠"/>
<glyph glyph-name="lessequal" d="M1059 450v-80l-926 352v68l926 351v-79l-823 -302v-8zM133 113v69h926v-69h-926z" unicode="≤"/>
<glyph glyph-name="greaterequal" d="M133 450l824 302v8l-824 302v79l926 -351v-68l-926 -352v80zM1059 113h-926v69h926v-69z" unicode="≥"/>
<glyph glyph-name="lozenge" horiz-adv-x="1120" unicode="◊" d="M1018 652l-418 -704h-80l-418 704l418 703h80zM556 28h8l368 624l-368 623h-8l-368 -623z"/>
</font>
</defs>
</svg>
